<svg width="252" height="327" viewBox="0 0 252 327" fill="none" xmlns="http://www.w3.org/2000/svg">
<path d="M205.215 195.465C205.689 192.275 205.358 189.048 205.568 185.843C205.741 182.405 205.869 178.951 205.696 175.505C205.568 173.07 205.395 170.627 204.967 168.221C204.485 165.914 203.222 163.614 201.139 162.423C199.627 161.593 197.837 161.269 196.122 161.314C195.513 161.299 194.768 161.367 194.204 161.435C194.024 161.45 193.866 161.495 193.715 161.616C193.294 161.978 193.234 162.611 193.445 163.101C193.776 163.991 194.648 163.787 195.4 163.878C196.513 164.014 197.348 164.104 198.371 164.398C199.499 164.692 200.605 165.19 201.387 166.08C201.973 166.819 202.485 167.663 202.71 168.583C203.041 170.272 203.192 171.991 203.229 173.703C203.267 176.976 203.312 180.248 203.139 183.521C203.102 184.916 203.019 186.311 203.004 187.706C203.004 189.892 203.147 192.079 203.102 194.266C203.071 195.442 203.102 196.392 203.169 197.531C203.259 198.179 203.169 199.823 203.997 199.823C204.786 199.687 205.095 196.219 205.215 195.457V195.465Z" fill="#FF592C"/>
<path d="M204.831 200.178C205.305 199.642 205.29 198.903 205.268 198.232C205.32 196.943 205.433 195.661 205.486 194.371C205.621 190.488 205.606 186.605 205.741 182.744C205.794 179.871 205.568 177.013 205.373 174.148C205.245 171.403 204.756 168.621 203.47 166.17C202.838 164.768 201.665 163.742 200.402 162.92C200.266 162.8 200.003 162.8 199.98 163.026C199.973 163.237 200.138 163.358 200.289 163.486C200.868 164.029 201.447 164.587 201.891 165.243C203.989 168.855 203.47 173.221 203.568 177.187C203.696 181.545 203.485 185.888 203.455 190.232C203.417 192.026 203.387 193.829 203.297 195.623C203.267 196.392 203.192 197.161 203.162 197.931C203.132 198.609 203.086 199.318 203.44 199.929C203.62 200.276 203.914 200.517 204.23 200.517C204.433 200.517 204.643 200.419 204.824 200.193L204.831 200.178Z" fill="#FF592C"/>
<path d="M177.139 195.374C176.665 192.185 176.996 188.957 176.786 185.753C176.613 182.314 176.485 178.861 176.658 175.415C176.786 172.979 176.959 170.536 177.387 168.131C177.869 165.823 179.132 163.524 181.216 162.332C182.727 161.503 184.517 161.178 186.232 161.224C186.841 161.209 187.586 161.277 188.15 161.352C188.33 161.367 188.488 161.412 188.639 161.533C189.06 161.895 189.12 162.528 188.909 163.018C188.579 163.908 187.706 163.705 186.954 163.795C185.841 163.931 185.006 164.021 183.983 164.315C182.855 164.609 181.75 165.107 180.967 165.997C180.381 166.736 179.869 167.58 179.644 168.5C179.32 170.189 179.162 171.909 179.125 173.62C179.087 176.893 179.042 180.165 179.215 183.438C179.253 184.833 179.335 186.228 179.35 187.623C179.35 189.809 179.207 191.996 179.253 194.183C179.283 195.359 179.253 196.309 179.185 197.448C179.095 198.096 179.185 199.74 178.358 199.74C177.568 199.605 177.259 196.136 177.139 195.374Z" fill="#FF592C"/>
<path d="M177.523 200.08C177.049 199.544 177.064 198.805 177.087 198.134C177.034 196.845 176.921 195.563 176.869 194.273C176.733 190.39 176.748 186.507 176.613 182.646C176.56 179.773 176.786 176.915 176.981 174.05C177.109 171.305 177.598 168.523 178.884 166.072C179.516 164.67 180.689 163.644 181.953 162.822C182.088 162.702 182.351 162.702 182.374 162.928C182.381 163.139 182.216 163.26 182.073 163.388C181.494 163.931 180.915 164.489 180.471 165.145C178.373 168.757 178.892 173.123 178.794 177.089C178.666 181.447 178.877 185.79 178.907 190.134C178.944 191.928 178.974 193.731 179.065 195.525C179.095 196.294 179.17 197.063 179.2 197.833C179.23 198.511 179.275 199.22 178.922 199.831C178.741 200.178 178.448 200.419 178.132 200.419C177.929 200.419 177.718 200.321 177.538 200.095L177.523 200.08Z" fill="#FF592C"/>
<path d="M180.38 164.707C181.05 164.164 181.704 163.546 182.516 163.229C184.419 162.566 186.472 162.815 188.45 162.784C190.97 162.671 193.527 162.604 196.039 162.611C196.423 162.619 196.814 162.626 197.197 162.664C197.618 162.709 198.032 162.875 198.453 162.724C198.837 162.626 199.183 162.204 198.867 161.834C198.656 161.555 198.265 161.525 197.949 161.465C196.806 161.276 195.633 161.276 194.475 161.239C192.67 161.156 190.865 161.103 189.052 161.148C186.352 161.095 183.314 161.02 181.163 162.913C180.801 163.275 180.463 163.659 180.132 164.051C180.012 164.194 179.869 164.383 179.854 164.579C179.854 164.85 180.23 164.866 180.38 164.7V164.707Z" fill="#FF592C"/>
<path d="M201.635 165.484C201.875 165.484 202.131 165.25 201.988 165.009C201.349 164.458 200.589 163.976 199.814 163.637C198.303 163.131 196.716 162.845 195.129 162.739C193.324 162.536 191.519 162.46 189.706 162.475C187.593 162.362 185.517 162.415 183.479 163.003C182.817 163.222 182.103 163.222 181.614 163.712C181.23 164.172 181.546 164.647 182.095 164.7C182.441 164.737 182.764 164.579 183.103 164.519C184.05 164.315 184.998 164.051 185.961 163.961C187.766 163.81 189.759 163.938 191.511 163.998C194.144 164.096 196.791 163.968 199.326 164.647C200.115 164.888 200.815 165.424 201.642 165.484H201.635Z" fill="#FF592C"/>
<path d="M153.906 228.711C153.959 233.318 153.779 237.917 153.816 242.525C153.816 244.236 153.854 245.94 153.899 247.652C153.899 251.37 153.929 255.079 154.019 258.797C154.064 259.717 154.132 260.652 154.222 261.579C154.237 261.904 154.252 262.22 154.275 262.544C154.283 262.673 154.298 262.801 154.313 262.929C154.395 265.055 154.847 267.159 155.636 269.142C156.088 270.289 156.622 271.389 157.351 272.377C158.667 274.059 160.42 275.378 162.345 276.298C164.654 277.565 167.226 278.334 169.843 278.628C175.875 279.367 181.96 279.103 188.014 279.103C191.752 279.066 195.49 278.975 199.22 278.87C201.544 278.794 203.876 278.832 206.2 278.689C207.742 278.598 209.298 278.492 210.833 278.281C213.819 278.115 216.797 277.806 219.55 276.592C221.828 275.665 223.927 274.21 225.446 272.264C226.183 271.276 226.717 270.175 227.161 269.029C227.484 268.215 227.755 267.378 227.966 266.526C228.53 264.739 228.657 262.846 228.748 260.984C228.77 260.26 228.778 259.536 228.778 258.812V258.699C228.823 257.161 228.853 255.622 228.868 254.084C228.928 251.739 228.913 249.386 228.943 247.041C229.124 235.444 229.049 223.855 229.116 212.257C229.064 209.098 229.026 205.923 228.891 202.764C228.876 200.411 228.838 198.051 228.778 195.699C228.755 195.322 228.733 194.945 228.71 194.568C228.71 194.266 228.703 193.964 228.688 193.655C228.665 192.698 228.597 191.785 228.439 190.888C228.296 188.995 227.86 187.125 227.153 185.353C226.702 184.207 226.168 183.106 225.438 182.118C223.641 179.826 221.046 178.205 218.286 177.345C218.075 177.285 217.857 177.232 217.639 177.179C217.556 177.157 217.481 177.134 217.406 177.119C217.053 177.013 216.699 176.93 216.338 176.855C215.248 176.553 214.142 176.327 213.014 176.214C211.75 176.026 210.479 175.95 209.208 175.92C208.2 175.822 207.193 175.762 206.185 175.701C203.861 175.558 201.529 175.596 199.205 175.52C195.467 175.407 191.737 175.324 187.999 175.287C181.937 175.287 175.853 175.015 169.828 175.762C167.211 176.056 164.639 176.825 162.33 178.092C160.405 179.019 158.652 180.339 157.336 182.013C156.599 183.001 156.065 184.101 155.621 185.248C155.102 186.552 154.726 187.917 154.508 189.304C154.2 190.571 154.117 191.898 154.11 193.263C154.102 193.678 154.079 194.092 154.064 194.507C154.042 194.869 154.019 195.231 153.997 195.593C153.997 195.638 153.997 195.684 153.997 195.729C153.959 196.445 153.914 197.161 153.891 197.878C153.876 198.044 153.891 198.232 153.937 198.421C153.876 201.912 153.861 205.411 153.876 208.902V209.083C153.666 215.628 153.764 222.181 153.876 228.733L153.906 228.711Z" fill="#FF592C"/>
<path d="M210.231 279.789C209.772 281.516 210.404 283.597 211.638 284.947C212.48 285.822 213.744 286.463 215.022 286.463C215.346 286.463 215.669 286.425 215.985 286.334C217.948 285.867 219.294 284.193 219.459 282.368C219.775 280.958 219.294 279.292 218.407 278.123C217.542 277.037 216.128 276.471 214.699 276.366C212.48 276.215 210.637 277.866 210.231 279.797V279.789Z" fill="#FFAC7F"/>
<path d="M165.647 278.636C164.759 279.812 164.27 281.471 164.594 282.881C164.767 284.706 166.106 286.38 168.069 286.847C168.384 286.938 168.708 286.975 169.031 286.975C170.31 286.975 171.573 286.327 172.416 285.46C173.649 284.11 174.281 282.029 173.822 280.302C173.416 278.372 171.573 276.72 169.355 276.871C167.926 276.977 166.512 277.542 165.647 278.628V278.636Z" fill="#FFAC7F"/>
<path d="M214.12 193.821C214.098 195.434 214.083 197.048 214.128 198.662C214.271 201.919 214.459 205.177 214.436 208.434C214.534 212.913 214.662 217.656 214.707 222.09C214.812 231.078 214.609 240.096 214.714 249.077C214.805 252.681 214.79 256.233 214.79 259.837C214.782 260.878 214.767 261.918 214.759 262.959C214.669 263.668 214.978 264.746 215.677 264.746C215.73 264.746 215.79 264.746 215.85 264.723C216.452 264.46 216.429 263.66 216.459 263.042C216.519 261.609 216.572 260.177 216.602 258.736C216.73 253.39 216.707 248.021 216.617 242.675C216.542 236.726 216.572 230.784 216.519 224.835C216.414 221.193 216.414 217.551 216.309 213.916C216.294 212.416 216.279 210.915 216.271 209.422C216.309 206.919 216.422 204.408 216.301 201.904C216.234 199.514 216.279 197.131 216.226 194.741C216.226 193.874 216.158 193.006 216.128 192.139C216.098 191.302 215.263 190.36 214.556 190.978C214 191.544 214.143 193.022 214.105 193.828L214.12 193.821Z" fill="#FFFBED"/>
<path d="M198.536 193.866C198.243 200.434 198.626 206.986 198.604 213.531C198.521 219.217 198.634 224.895 198.664 230.573C198.679 231.078 198.694 231.583 198.709 232.096C198.694 232.684 198.686 233.28 198.671 233.868C198.649 235.278 198.679 236.681 198.724 238.083C198.792 240.232 198.701 242.389 198.694 244.538C198.739 246.74 198.724 248.934 198.777 251.136C198.844 253.963 198.724 256.798 198.664 259.626C198.634 260.674 198.619 261.722 198.664 262.763C198.649 263.411 198.686 264.444 199.551 264.422C199.702 264.399 199.822 264.339 199.912 264.248C200.183 264.083 200.258 263.705 200.266 263.381C200.288 262.997 200.296 262.62 200.303 262.235C200.341 261.074 200.386 259.913 200.401 258.759C200.521 255.328 200.491 251.905 200.499 248.466C200.499 245.503 200.476 242.532 200.499 239.569C200.476 238.023 200.424 236.477 200.364 234.939C200.371 229.608 200.552 224.269 200.484 218.938C200.537 213.313 200.153 207.688 200.228 202.062C200.243 200.117 200.13 198.179 200.16 196.234C200.191 195.238 200.266 194.251 200.228 193.255C200.213 192.841 200.213 192.388 200.1 191.988C200.04 191.702 199.912 191.438 199.679 191.28C199.378 191.084 198.995 191.227 198.852 191.596C198.604 192.313 198.604 193.104 198.521 193.866H198.536Z" fill="#FFFBED"/>
<path d="M182.81 207.771C182.772 209.128 182.817 210.621 182.9 211.933C183.103 217.498 183.359 223.063 183.359 228.635C183.404 233.491 183.366 238.347 183.208 243.196C183.193 246.423 183.231 249.65 183.261 252.87C183.261 253.699 183.269 254.529 183.284 255.351C183.254 256.233 183.231 257.115 183.216 257.997C183.193 259.106 183.156 260.214 183.148 261.33C183.171 261.919 183.073 262.522 183.133 263.095C183.133 263.283 183.133 263.464 183.133 263.653C183.201 264.603 184.427 264.874 184.6 263.758C184.637 262.657 184.735 261.572 184.803 260.508C184.923 257.899 184.923 255.29 184.931 252.681C184.976 251.641 185.013 250.6 185.029 249.552C185.051 246.785 185.029 244.018 185.066 241.243C185.089 240.3 185.096 239.358 185.104 238.407C185.104 238.196 185.119 237.978 185.119 237.767C185.119 234.939 185.171 232.111 185.156 229.276C185.156 227.24 185.141 225.197 185.089 223.146C185.089 222.987 185.089 222.829 185.081 222.671C185.081 222.542 185.081 222.414 185.074 222.294C185.059 221.66 185.044 221.042 185.029 220.439C184.991 217.536 184.916 214.776 184.841 211.903C184.856 209.181 184.645 206.285 184.57 203.601C184.472 200.276 184.758 196.943 184.555 193.617C184.449 192.765 184.69 191.559 183.855 191.137C182.652 190.767 182.908 192.954 182.893 193.768C182.923 197.546 182.757 201.324 182.908 205.101C182.893 205.984 182.87 206.873 182.825 207.756L182.81 207.771Z" fill="#FFFBED"/>
<path d="M166.903 204.114C166.888 206.489 167.008 208.864 167.098 211.239C167.136 213.275 167.173 215.304 167.219 217.339C167.249 219.775 167.286 222.218 167.331 224.654C167.331 228.137 167.392 231.621 167.422 235.105C167.376 237.774 167.407 240.443 167.429 243.113C167.399 244.696 167.361 246.287 167.384 247.878C167.407 248.64 167.429 249.409 167.444 250.17C167.444 250.246 167.444 250.321 167.444 250.397C167.339 254.491 167.444 258.586 167.437 262.68V262.695C167.437 262.974 167.429 263.246 167.422 263.525C167.407 264.233 167.241 265.425 168.234 265.44C168.632 265.38 168.866 264.972 168.866 264.595C168.903 263.072 168.948 261.557 168.986 260.033C169.114 256.195 169.084 252.357 169.009 248.519C169.084 240.994 169.287 233.468 169.031 225.943C169.024 221.102 169.024 216.254 168.858 211.413C168.79 208.547 168.512 205.788 168.64 202.96C168.708 199.808 168.986 196.649 168.715 193.497C168.7 193.225 168.685 192.954 168.663 192.69C168.64 192.441 168.64 192.132 168.505 191.913C168.497 191.883 168.49 191.853 168.475 191.823C168.332 191.483 168.001 191.227 167.685 191.408C167.015 191.815 167.173 194.711 167.106 195.57C167.038 197.87 166.993 200.17 166.985 202.477C166.963 203.028 166.933 203.586 166.91 204.136L166.903 204.114Z" fill="#FFFBED"/>
<path d="M215.037 287.33C215.737 287.277 216.459 287.262 217.113 286.99C217.519 286.825 217.843 286.538 218.196 286.282C218.414 286.138 218.625 285.995 218.775 285.776C219.069 285.339 218.903 284.608 218.422 284.374C217.655 283.974 216.963 284.751 216.233 284.902C215.812 285.007 215.376 284.992 214.94 284.985C214.782 284.985 214.631 284.985 214.481 284.985C213.954 284.924 213.398 284.879 212.984 284.517C211.766 283.876 211.081 284.849 211.555 285.822C211.924 286.576 212.984 287.337 215.022 287.337C215.022 287.337 215.037 287.337 215.045 287.337L215.037 287.33Z" fill="#601124"/>
<path d="M170.287 288.212C171.265 288.076 172.22 287.624 172.912 286.907C173.679 286.349 173.92 285.301 173.138 284.645C172.852 284.434 172.499 284.359 172.145 284.404C171.731 284.472 171.431 284.774 171.1 285.007C170.445 285.43 169.633 285.739 168.851 285.611C168.362 285.49 167.866 285.362 167.444 285.075C167.113 284.857 167.016 284.683 166.685 284.54C165.692 284.125 165.03 285.022 165.481 285.927C166.316 287.254 168.249 288.234 169.866 288.234C170.009 288.234 170.152 288.227 170.295 288.212H170.287Z" fill="#601124"/>
<path d="M241.218 215.583C242.669 215.206 244.038 214.572 245.414 213.999C246.761 213.494 248.099 212.944 249.355 212.235C250.303 211.699 251.364 211.043 251.604 209.897C251.898 208.427 250.86 207.152 250.205 205.938C249.807 205.267 249.37 204.619 248.949 203.963C248.062 202.575 247.25 201.135 246.347 199.755C245.452 198.421 244.64 197.033 243.775 195.668C243.346 194.997 242.887 194.258 242.188 193.836C241.413 193.323 240.466 193.369 239.586 193.195C238.585 192.939 237.578 192.909 236.607 192.69C236.104 192.615 235.502 192.336 235.051 192.69C234.351 192.343 233.704 192.705 233.419 193.399C233.05 193.919 232.704 194.447 232.351 194.975C230.583 197.674 230.5 199.416 232.027 202.251C233.358 205.124 234.915 207.876 236.449 210.644C237.269 211.993 239.443 215.99 241.225 215.598L241.218 215.583ZM240.714 213.102C239.533 211.654 238.743 209.942 237.878 208.299C236.713 206.006 235.479 203.759 234.411 201.422C234.103 200.63 233.494 199.883 233.584 199.001C233.862 198.036 234.456 197.192 235.005 196.362C235.374 195.797 235.855 195.269 235.998 194.59C237.322 195.133 238.706 195.291 240.082 195.593C240.849 195.729 241.586 195.578 241.992 196.392C243.632 199.145 245.234 201.927 246.889 204.672C247.761 206.104 248.784 207.454 249.506 208.977C249.28 209.332 248.882 209.528 248.528 209.746C247.708 210.199 246.851 210.561 245.994 210.938C244.211 211.609 242.504 212.468 240.706 213.109L240.714 213.102Z" fill="#0BFF80"/>
<path d="M244.422 208.781C245.392 208.608 245.4 207.386 244.971 206.7C244.565 205.901 244.128 205.117 243.677 204.347C243.203 203.563 242.662 202.832 242.15 202.078C241.631 201.331 241.195 200.524 240.639 199.801C239.804 199.031 238.789 200.245 239.052 201.128C239.383 202.055 239.962 202.869 240.428 203.729C241.158 204.898 241.97 206.014 242.722 207.16C243 207.537 243.301 207.899 243.579 208.276C243.775 208.532 244.068 208.834 244.422 208.774V208.781Z" fill="#0BFF80"/>
<path d="M236.434 196.89C237.539 196.324 236.554 194.417 236.299 193.55C235.291 191.091 232.824 188.686 230.485 187.464C228.905 186.605 227.13 186.273 225.363 186.054C221.971 185.61 218.865 184.448 216.902 181.492C214.262 177.752 216.473 175.294 214.375 172.451C212.668 170.536 209.99 169.692 207.478 169.805C206.944 169.827 206.425 169.963 205.929 170.152C205.169 170.446 204.425 170.951 203.582 170.71C203.349 170.642 203.131 170.544 202.89 170.499C202.041 170.348 201.71 171.29 202.221 171.901C203.139 172.994 204.816 173.228 206.124 172.844C206.613 172.708 207.095 172.557 207.591 172.459C208.403 172.346 209.231 172.474 210.02 172.67C210.697 172.859 211.351 173.123 211.931 173.53C212.367 173.771 212.555 174.201 212.577 174.683C212.653 175.935 212.577 177.202 212.818 178.446C213.518 181.726 215.706 184.614 218.451 186.477C220.061 187.487 221.881 188.158 223.723 188.565C225.175 188.882 226.664 188.988 228.108 189.319C229.146 189.606 230.176 189.991 231.064 190.624C232.057 191.386 232.982 192.253 233.696 193.286C234.125 193.919 234.433 194.613 234.704 195.329C234.9 196.106 235.509 197.177 236.434 196.905V196.89Z" fill="#0FFF80"/>
<g clip-path="url(#clip0_1_1054)">
<path d="M106.744 13.7541C107.914 15.6975 106.165 18.3698 105.066 19.9917C104.202 21.2706 103.146 22.4567 101.761 23.1712C100.59 24.0429 99.191 24.5645 97.7347 24.0929C97.0637 23.9214 96.3926 23.7642 95.7216 23.5999C94.9435 23.5999 94.1654 23.5856 93.3944 23.4713C91.9952 23.2069 89.8965 23.1641 89.0898 21.8279C88.019 19.7273 89.4896 16.3049 90.6532 14.4829C90.9244 14.0685 91.2314 13.6827 91.6312 13.3826C91.8025 13.254 92.0452 13.1111 92.2736 13.1111C92.8876 12.8324 93.5657 12.7109 94.2368 12.6681C96.2213 12.6252 98.5556 12.3894 100.162 13.7898C100.526 14.1042 100.811 14.4972 101.133 14.8544C101.325 15.1045 101.604 15.276 101.925 15.2403C102.239 15.0259 102.489 14.7401 102.767 14.4829C103.81 13.5112 105.616 12.2036 106.751 13.747L106.744 13.7541Z" fill="#D5FFBF"/>
<path d="M85.0279 51.7083C83.8644 51.6726 82.7008 51.6583 81.5443 51.5297C80.3736 51.3725 79.2457 50.9795 78.1606 50.5151C76.6187 49.822 74.9696 49.0575 73.9417 47.6642C72.5497 45.6708 72.7638 43.1486 72.7138 40.8408C72.7281 37.6756 72.5497 34.5175 72.3426 31.3665C72.0428 31.3951 71.7359 31.3951 71.4432 31.3951C69.8298 31.4237 68.5021 30.1805 68.7091 28.53C68.8876 27.4511 69.5657 26.4151 70.4937 25.8292C70.8721 25.622 71.3361 25.5005 71.7858 25.5148C71.8215 25.3933 71.8572 25.279 71.8858 25.1647C71.9286 25.0361 71.9643 24.9075 72.0143 24.786C72.0071 24.4716 72.0143 24.1572 72.1642 23.8857C72.2855 23.6785 72.4283 23.5571 72.5711 23.4999C73.2564 22.1352 74.1915 20.8848 75.1267 19.6916C76.5901 18.0054 78.232 16.4764 79.9024 15.0045C80.9518 14.0685 81.9512 13.0396 83.229 12.4252C84.0143 12.0322 84.9637 12.0751 85.7918 12.3037C86.8483 12.6467 87.7763 13.3112 88.7115 13.897C89.1398 14.2186 89.2183 14.7902 89.2826 15.2903C89.5039 16.7122 88.69 18.0268 88.4902 19.413C88.3831 20.0274 88.3046 20.6348 88.2617 21.2564C88.2332 21.6279 88.2831 22.0066 88.4688 22.3353C88.8757 22.8354 89.5895 23.0498 90.2177 23.1427C90.7246 23.1998 91.2243 23.1284 91.724 23.0355C91.9738 22.9998 92.2237 22.9998 92.4521 23.1355C92.8733 23.3927 93.0803 23.8643 93.0803 24.3359C94.0868 23.6857 95.5859 23.7143 97.2421 23.7428C99.9405 23.7857 103.053 23.8286 105.073 20.9206C106.451 19.2772 107.236 17.1837 107.515 15.076C107.586 14.4186 107.243 13.7827 107.386 13.1325C107.407 12.9968 107.457 12.8682 107.529 12.7539C107.2 12.3752 106.808 12.0465 106.38 11.7536C104.381 10.4817 101.968 10.2674 99.655 10.1959C100.312 10.346 100.783 10.989 100.783 12.2466C101.168 11.9393 101.604 11.5535 102.139 11.6678C102.753 11.7607 103.117 12.4323 103.032 13.0111C102.982 13.5112 102.689 13.9899 102.253 14.2543C101.304 14.9259 100.233 16.4049 98.9339 15.7476C98.2058 15.2975 98.163 14.3543 98.3129 13.5898C97.7418 14.1828 97.2064 14.8902 96.414 15.1974C95.4646 15.5904 94.6579 14.7187 94.608 13.8042C94.0654 14.3543 93.4158 15.0474 92.5663 14.9474C91.9952 14.8616 91.6312 14.3186 91.5241 13.7899C91.4741 13.4969 91.4598 13.204 91.4741 12.911C91.1886 12.5038 91.5312 11.5606 91.724 11.1248C91.9238 10.3817 92.2451 9.74581 92.6663 9.20994C92.7733 9.13134 92.8804 9.0456 92.9804 8.95272C93.116 8.8384 93.2516 8.71694 93.3873 8.60976C93.4158 8.59547 93.4372 8.57404 93.4658 8.55975C93.5086 8.53831 93.5514 8.51688 93.5943 8.49544C93.8727 8.38827 94.1511 8.28109 94.4366 8.19535C94.5294 8.17392 94.6151 8.15248 94.7079 8.13819C94.7793 8.13105 94.8507 8.1239 94.9149 8.1239C95.0934 8.1239 95.2647 8.13105 95.4432 8.15248C95.7787 8.19535 96.1142 8.25966 96.4354 8.3454C96.8638 8.47401 97.2778 8.63834 97.699 8.78839C97.9774 8.88841 98.2558 8.96701 98.5413 9.0456C98.8197 9.1242 99.091 9.22423 99.3765 9.28853C99.6193 9.34569 99.862 9.41 100.105 9.45287C100.533 9.51717 100.961 9.53146 101.39 9.4743C101.711 9.43143 102.032 9.38856 102.353 9.34569C102.646 9.30282 102.946 9.25995 103.239 9.23852C103.381 9.23852 103.517 9.23852 103.66 9.23852C104.188 9.28853 104.716 9.37427 105.23 9.48859C105.866 9.63864 106.487 9.86013 107.093 10.1031C107.172 10.1388 107.258 10.1674 107.336 10.2031C107.315 10.1959 107.293 10.1817 107.265 10.1745C107.55 10.2888 107.829 10.4174 108.1 10.5603C108.357 10.6961 108.614 10.8247 108.864 10.9676C108.957 11.0248 109.042 11.0891 109.128 11.1534C109.256 11.2463 109.385 11.3463 109.513 11.4463C109.67 11.5749 109.835 11.7178 110.013 11.825C110.192 12.1465 110.334 12.4895 110.434 12.8539C111.255 14.6401 111.841 16.5621 112.876 18.2412C114.518 20.1703 116.573 21.7494 118.594 23.257C119.871 24.143 121.549 24.8646 120.792 26.7437C121.499 28.0441 120.271 29.2945 119.807 30.4591C119.136 31.5737 117.766 36.4752 115.981 34.5675C115.824 34.2531 115.824 33.8816 115.91 33.4886C115.695 33.4743 115.474 33.4171 115.26 33.3028C110.541 31.1236 105.673 29.023 100.469 28.4228C99.6764 28.2227 98.7341 28.2085 97.8846 28.0298C97.8846 28.0727 97.8846 28.1156 97.8774 28.1584C97.8346 29.5803 97.235 30.9807 96.2498 32.0024C95.5503 32.7455 94.6008 33.1242 93.7085 33.5743C92.2022 34.3246 90.9316 35.7678 90.903 37.5112C90.8388 39.6404 91.0458 41.8196 91.1386 43.9346C91.2243 45.5493 91.3313 47.1927 90.9887 48.7789C90.6889 50.2293 89.668 51.0795 88.226 51.301C87.298 51.5154 86.3629 51.7369 85.4063 51.7369C85.2778 51.7369 85.1564 51.7369 85.0279 51.7226V51.7083ZM96.9137 26.1007C96.9922 26.0792 97.0779 26.065 97.1564 26.0578C97.0494 26.0435 96.9423 26.0364 96.8281 26.0221C96.8566 26.0507 96.8852 26.0721 96.9066 26.1007H96.9137ZM97.2564 11.2105C97.8489 10.6175 98.4985 10.2388 99.0839 10.1531C99.0482 10.1531 99.0125 10.1531 98.9768 10.1531C98.2058 9.86013 97.3064 9.6172 96.4426 9.58148C96.9494 9.80297 97.2707 10.446 97.2564 11.2105ZM95.1933 9.71009C95.1576 9.78154 95.1148 9.8387 95.0648 9.89586C95.1862 9.79583 95.3075 9.71009 95.4289 9.65293C95.3504 9.66722 95.2647 9.68865 95.1862 9.71009H95.1933Z" fill="#FFD3B6"/>
<path d="M106.958 13.6684C106.686 13.6041 106.479 13.3968 106.23 13.2754C105.951 13.1325 105.666 13.0253 105.373 12.911C104.738 13.0467 104.102 13.2468 103.446 13.2468C102.739 13.4397 101.911 13.2182 101.782 12.4108C101.318 12.7538 100.597 12.7752 100.362 12.1608C100.083 12.2179 99.8334 12.1965 99.5836 12.0464C99.4979 11.9964 99.4265 11.9321 99.3623 11.8607C98.577 11.9536 97.5348 12.5609 97.0351 11.6249C96.05 11.5392 95.8929 10.2388 96.3641 9.5457C96.4926 9.15273 96.7781 8.77404 97.1422 8.55969C97.3278 8.624 97.5134 8.69545 97.699 8.75975C97.9774 8.85978 98.2558 8.93838 98.5413 9.01697C98.8197 9.09557 99.091 9.1956 99.3766 9.2599C99.6193 9.31706 99.862 9.38137 100.105 9.42424C100.533 9.48854 100.961 9.50283 101.39 9.44567C101.711 9.4028 102.032 9.35993 102.353 9.31706C102.646 9.27419 102.946 9.23132 103.239 9.20989C103.353 9.20989 103.467 9.20989 103.574 9.20989C103.631 9.28848 103.681 9.38137 103.717 9.47425C104.017 9.45282 104.316 9.52427 104.531 9.74576C104.723 9.78149 104.902 9.8958 105.023 10.0387C105.416 9.93153 105.851 10.0959 106.144 10.3674C106.786 10.6032 107.429 10.8675 107.971 11.2891C108.771 12.025 108.271 13.6969 107.172 13.6969C107.101 13.6969 107.036 13.6969 106.958 13.6755V13.6684Z" fill="#FFD3B6"/>
<path d="M63.2766 149.087C63.3266 152.417 63.3694 155.754 62.9411 159.069C62.7983 160.226 62.6484 163.542 61.3849 163.842C61.0137 163.92 60.6068 163.742 60.3998 163.434C59.6502 162.398 59.0791 161.248 58.3795 160.183C57.1945 157.868 56.2594 155.396 55.8453 152.817C55.5812 151.066 55.5669 149.287 55.3742 147.53C55.1315 144.107 54.2534 140.785 53.8608 137.384C53.5752 134.897 52.7829 132.49 52.6615 129.989C52.6615 129.567 52.6615 129.074 52.8971 128.71C53.1398 128.288 53.7466 128.217 54.0607 128.603C54.1892 128.117 54.5889 127.674 55.0886 127.574C55.5883 127.495 56.2594 127.359 56.6234 127.238C58.1368 126.759 59.7644 126.316 61.3635 126.516C61.7561 126.588 62.0916 126.824 62.3272 127.145C63.0482 128.045 63.1909 129.21 63.2481 130.325C63.4765 133.268 63.348 136.219 63.2409 139.163C63.1909 142.464 63.2695 145.772 63.2909 149.073L63.2766 149.087Z" fill="#FFD3B6"/>
<path d="M72.4212 257.177C70.0369 257.32 69.9583 255.319 70.2939 253.504C70.4509 252.547 70.251 250.382 71.8001 250.839C72.2784 250.346 72.9566 250.296 73.6062 250.339C74.7127 250.303 75.8191 250.21 76.9256 250.225C79.2885 250.432 82.2796 249.274 81.8584 252.847C81.994 255.626 80.7234 256.726 78.0178 256.691C76.1332 256.769 74.2915 257.241 72.4283 257.177H72.4212Z" fill="#FFD3B6"/>
<path d="M108.828 260.349C107.172 259.627 108.371 255.476 108.171 253.904C107.308 253.19 108 252.032 108.385 251.239C108.421 250.382 108.7 248.281 109.97 248.981C112.547 247.867 115.881 248.102 118.665 248.195C120.286 248.303 121.927 247.438 121.977 249.824C121.977 249.803 121.97 249.782 121.963 249.767L121.956 249.724C122.313 252.432 123.17 256.834 121.563 259.184C120.999 259.892 120.086 259.749 119.286 259.684C118.43 259.649 117.58 259.699 116.723 259.756C114.082 259.713 111.455 260.549 108.835 260.356L108.828 260.349ZM115.524 250.76C115.524 250.76 115.567 250.746 115.588 250.732C115.588 250.703 115.588 250.675 115.603 250.653C115.567 250.653 115.524 250.653 115.488 250.653C115.503 250.689 115.517 250.725 115.531 250.76H115.524Z" fill="#FFD3B6"/>
<path d="M69.9726 253.14C69.2302 251.282 69.3016 249.889 71.2005 248.888C72.207 248.46 73.3563 248.696 74.42 248.538C76.8471 248.374 79.2671 248.174 81.6942 248.117C83.95 248.731 83.2005 252.404 81.0018 252.511C79.4955 252.547 77.9964 252.49 76.4973 252.454C74.934 252.561 73.3849 252.704 71.8287 252.754C71.8429 254.097 70.4295 254.526 69.9726 253.147V253.14Z" fill="#FFD3B6"/>
<path d="M61.492 129.567C60.514 129.138 60.1927 127.902 60.4854 126.945C60.6853 125.902 60.9708 124.208 62.4343 124.637C63.7692 125.037 64.0119 126.695 63.5407 127.838C63.3837 128.831 62.6484 130.046 61.492 129.567Z" fill="#FFD3B6"/>
<path d="M127.224 225.281C127.281 231.012 128.324 236.828 126.974 242.436C126.418 245.78 125.804 247.088 122.213 247.581C119.493 247.724 116.902 248.345 114.189 248.11C111.134 247.874 107.814 248.724 104.916 247.466C101.461 245.152 102.339 230.969 101.804 226.589C101.304 216.393 100.997 206.197 100.569 196.001C100.176 186.591 98.9197 177.238 98.4914 167.836C98.3486 166.821 98.1987 165.806 98.0631 164.799C97.8775 164.442 97.7347 164.049 97.6276 163.67C97.4135 162.856 97.392 162.005 97.285 161.169C97.1993 160.376 97.0637 159.583 96.978 158.79C96.7781 156.947 96.5283 155.11 96.464 153.26C96.4141 152.331 96.2998 151.402 96.1356 150.48C96.0143 149.923 95.9572 149.309 95.5717 148.859C95.5646 148.859 95.5503 148.859 95.5431 148.859C95.5074 148.859 95.4789 148.859 95.4432 148.859C94.8721 149.895 94.9292 151.166 94.7436 152.31C94.4152 154.86 94.2582 157.425 93.9298 159.976C93.6942 162.548 93.3373 165.106 93.1446 167.678C93.0089 169.443 93.0232 171.558 92.9304 173.23C92.6734 176.46 92.395 179.682 92.2308 182.912C91.8239 188.22 92.1166 193.565 91.517 198.866C91.3742 200.295 91.1529 201.71 90.8816 203.118C90.7317 203.782 90.6318 204.504 90.182 205.04C90.0179 207.719 89.561 210.37 89.2398 213.028C89.7966 216.993 89.0256 221.159 88.0547 224.96C88.019 229.182 87.6478 233.377 87.298 237.571C86.8412 240.857 87.0268 244.466 85.2921 247.402C84.2284 249.631 81.6585 248.938 79.674 249.188C77.1041 249.431 74.5128 249.653 71.9286 249.731C69.216 249.274 63.4265 250.489 61.9489 247.867C60.9994 245.009 61.492 241.851 61.6562 238.893C61.7847 236.806 61.8632 234.713 61.9417 232.619C62.2201 220.287 62.5342 207.94 62.3058 195.608C62.5628 186.991 62.3058 178.374 62.7627 169.758C62.8555 161.434 62.9126 153.103 63.1196 144.779C63.1481 143.893 63.1481 143.007 63.1053 142.149C62.7983 141.635 62.8555 140.949 63.1767 140.449C63.4551 139.92 64.1547 139.57 64.6829 139.992C64.8471 140.177 64.9685 140.377 65.0541 140.599C66.3891 140.392 67.7311 140.242 69.0732 140.035C71.6003 139.684 74.006 139.17 76.4831 138.663C81.7228 137.712 86.9554 136.755 92.1095 135.397C96.771 134.154 101.397 132.818 106.123 131.803C111.434 130.617 116.709 129.238 121.97 127.874C122.07 127.452 122.334 127.131 122.913 127.038C124.976 126.945 124.069 133.926 124.276 135.347C124.362 140.077 124.519 145.065 124.497 149.759C124.297 162.213 125.275 174.659 124.99 187.113C124.79 195.88 125.682 204.611 126.432 213.335C126.86 217.3 127.196 221.273 127.217 225.267L127.224 225.281Z" fill="#D5FFBF"/>
<path d="M63.6907 141.692C62.7698 140.327 64.4117 139.013 65.718 138.97C67.7382 138.591 69.7799 138.298 71.793 137.891C78.9601 136.191 86.2201 134.947 93.4087 133.368C96.7353 132.697 100.076 132.118 103.396 131.382C107.165 130.596 110.998 130.196 114.796 129.539C116.238 129.296 117.694 129.124 119.129 128.838C119.6 128.717 120.129 128.553 120.535 128.924C121.028 129.424 120.421 130.096 119.864 130.196C113.411 131.939 106.908 133.504 100.433 135.176C94.6936 136.433 88.9328 137.612 83.1862 138.834C79.1743 139.527 75.2124 140.485 71.2362 141.349C69.8156 141.621 68.3807 141.835 66.953 142.085C65.8679 142.292 64.483 142.735 63.6835 141.706L63.6907 141.692Z" fill="#D5FFBF"/>
<path d="M103.103 239.357C100.419 236.942 101.19 232.912 100.819 229.668C100.819 229.69 100.819 229.704 100.819 229.725C100.819 229.733 100.819 229.74 100.819 229.747C99.8691 214.728 98.6413 199.724 97.6776 184.719C97.6776 184.748 97.6776 184.769 97.6776 184.798C97.6776 184.812 97.6776 184.834 97.6776 184.841C97.1279 177.86 96.5854 170.879 95.793 163.92C95.2719 158.661 95.3004 153.353 95.4432 148.08C95.4718 147.894 95.5789 147.701 95.7716 147.665C95.9929 147.622 96.1571 147.815 96.207 148.008C96.2713 148.258 96.2856 148.43 96.3213 148.63C96.8138 150.923 97.442 153.188 97.8703 155.503C98.3915 160.341 99.1125 165.149 99.6621 169.986C100.833 182.154 101.611 194.386 102.411 206.519C102.896 213.328 103.553 220.158 103.867 226.96C104.024 229.004 104.109 230.826 104.217 232.834C104.445 235.063 104.424 237.456 103.096 239.364L103.103 239.357Z" fill="#D5FFBF"/>
<path d="M143.879 33.5886C144.55 34.7961 146.142 38.4115 145.321 40.0191C145.242 42.3841 143.693 44.9706 142.33 46.7425C139.71 50.1864 136.683 53.3445 133.506 56.2668C129.83 59.7107 126.225 63.2474 122.27 66.3698C118.929 69.0206 115.124 71.4356 113.097 75.3296C112.319 76.8158 111.669 78.3662 111.048 79.9238C110.577 80.9313 110.634 82.1173 111.227 83.0605C112.083 84.1894 113.061 85.2397 113.654 86.5544C114.667 88.8122 114.168 91.4201 115.124 93.6994C116.588 96.6074 118.529 99.2653 119.643 102.359C120.514 104.495 121.371 106.689 121.992 108.911C122.499 111.069 122.934 113.234 123.541 115.37C124.433 118.35 125.183 121.372 125.49 124.473C125.754 125.309 125.104 126.473 124.247 126.473C124.062 126.831 123.755 127.124 123.398 127.216C122.156 127.595 120.921 127.974 119.643 128.217C118.023 128.603 116.359 128.803 114.739 129.196C111.598 129.996 108.521 131.411 105.373 132.139C104.609 132.332 103.838 132.525 103.06 132.682C100.74 133.09 98.3629 133.104 96.0571 133.647C93.8584 134.126 91.6455 134.476 89.4468 134.94C88.2046 135.219 86.934 135.276 85.6847 135.483C83.9857 135.833 82.251 136.026 80.5592 136.398C79.1172 136.762 77.7323 137.312 76.276 137.627C74.5057 138.055 72.6782 138.113 70.8935 138.434C69.2231 138.863 67.5241 139.377 65.7823 139.22C65.4182 139.17 65.0327 139.141 64.6758 139.049C64.5473 139.091 64.4045 139.113 64.2546 139.084C63.4765 138.906 63.3694 137.97 63.4123 137.305C63.4123 136.605 63.4551 135.905 63.4765 135.205C63.5193 133.268 63.4479 131.332 63.4051 129.396C63.3837 128.324 63.3551 127.238 63.1339 126.188C63.0982 126.216 63.0625 126.245 63.0196 126.273C61.9703 126.838 60.7139 126.752 59.5788 127.038C56.809 127.431 54.0393 127.924 51.2481 128.117C45.9298 128.152 48.978 122.829 48.7067 119.7C46.3581 112.698 49.7418 112.298 48.9494 106.675C48.6568 104.974 47.279 103.817 46.6865 102.266C46.0226 100.694 46.8221 99.1295 47.3432 97.6505C47.5289 96.6645 47.5645 95.85 47.6074 94.8711C47.7073 91.6059 47.0292 88.3478 47.4575 85.0896C47.6788 83.1605 48.1428 81.2671 48.7281 79.4165C49.5205 76.7372 50.3557 74.0435 51.6407 71.557C52.533 69.9351 53.561 68.4204 54.6175 66.9342C54.8388 65.7696 55.624 64.7122 56.4164 63.8405C58.7222 61.1539 60.8852 58.789 63.3052 56.3096C65.4182 54.3876 67.4598 52.3871 69.4872 50.3722C70.4938 49.7648 72.7638 46.7497 73.6562 48.6145C73.7704 48.9146 73.7989 49.1861 73.7561 49.429C74.9197 49.6577 76.4474 51.644 77.4682 51.9584C81.9012 53.6303 86.9697 52.4299 91.0815 50.3722C92.2023 49.4219 92.8733 48.0286 93.9369 46.9997C95.7002 45.1563 97.2207 42.234 100.09 42.2197C102.767 42.5556 104.259 46.3924 106.137 47.8714C107.208 48.3787 108.036 46.9283 108.864 46.4281C108.964 46.3495 109.071 46.2781 109.185 46.2209C109.92 45.6636 110.648 45.2063 110.927 45.0634C112.754 44.0489 114.896 44.6133 116.823 44.4275C117.052 44.2203 117.287 44.006 117.523 43.7916C117.701 43.3915 117.908 43.0057 117.901 42.5484C117.723 42.3055 117.509 42.0911 117.273 41.9054C117.237 41.8982 117.209 41.8839 117.173 41.8768C116.217 41.591 115.253 41.3481 114.303 41.0337C113.832 40.9336 113.318 40.705 113.14 40.2191C112.869 39.5761 113.29 39.0045 113.982 39.0116C114.675 39.0045 115.338 39.2188 116.017 39.3617C115.874 38.1471 116.409 37.7184 117.166 37.6827C117.195 37.6112 117.223 37.5398 117.245 37.4755C117.559 36.6752 117.758 35.825 118.137 35.0462C119.186 33.2385 120.064 31.3379 120.849 29.4088C121.442 27.9369 121.942 26.4365 122.37 24.9074C122.548 24.393 122.634 23.6928 122.92 23.1926C122.913 22.3281 122.948 21.4493 122.798 20.5919C122.798 19.9488 122.306 19.4344 122.32 18.7985C122.32 18.7413 122.334 18.6842 122.349 18.627C122.334 18.6056 122.32 18.5841 122.306 18.5555C121.985 17.2623 123.712 18.0625 124.269 18.3483C126.146 19.2772 127.824 20.5561 129.637 21.6065C130.936 22.3352 132.3 22.9569 133.563 23.7571C134.963 24.6645 136.105 25.7005 137.368 26.758C139.86 28.7514 142.244 30.8521 143.872 33.5957L143.879 33.5886Z" fill="#FFA97F"/>
<path d="M71.1862 41.741C68.7591 41.4552 67.6169 40.7121 66.3748 38.6257C66.1392 38.2971 65.7109 38.2613 65.3682 38.097C65.0898 37.9827 64.84 37.8326 64.5973 37.654C63.7406 36.9824 63.0839 35.8106 63.3623 34.7031C63.3551 34.7317 63.348 34.7603 63.3337 34.7889C63.3266 34.8389 63.3195 34.8818 63.3052 34.9318C63.3908 33.8386 64.3189 33.6028 64.8971 34.5388C64.8685 34.5031 64.84 34.4602 64.8114 34.4245C64.7757 34.3888 64.7472 34.3602 64.7115 34.3245C65.1612 34.696 65.0827 35.339 65.6038 35.6034C65.9393 35.7677 66.3034 35.8535 66.6532 35.9964C67.674 36.4037 68.1237 37.4683 68.7876 38.2613C69.5158 38.9401 70.5937 39.0473 71.5431 39.1402C71.9001 39.2116 71.9143 38.9115 71.9786 38.64C72.1999 36.9181 72.4069 35.1104 71.9572 33.417C70.6579 32.5096 68.859 31.988 68.2951 30.3376C67.8525 29.0657 68.1451 27.5367 68.9518 26.4793C69.6371 25.6004 70.7008 25.2075 71.7644 25.036C72.5711 24.8788 73.3849 25.0931 74.1773 25.2289C74.1773 24.6144 74.0559 24.0071 73.9131 23.4069C73.7632 22.7925 73.5776 22.0851 73.9988 21.5278C74.6484 20.6918 75.6835 21.4492 75.862 22.2852C75.9762 22.7925 76.0976 23.3498 76.1904 23.8499C76.4402 25.2432 76.6544 27.8082 74.6913 27.9154C73.9346 27.8797 73.1993 27.6082 72.4355 27.6296C71.9857 27.7368 71.5146 27.7868 71.1005 28.0011C70.5723 28.2869 70.1725 28.9086 70.2796 29.5159C70.8721 30.0732 71.6359 30.3804 72.3284 30.7877C73.1493 31.2307 73.8203 31.9738 74.0274 32.8955C74.4057 34.2816 74.4271 35.732 74.3272 37.161C74.1916 39.2545 74.0916 42.2554 71.1791 41.7338L71.1862 41.741Z" fill="#FF592C"/>
<path d="M73.2921 26.2435C72.4854 26.2578 72.0071 25.3647 72.0857 24.6359C72.1285 24.2072 72.3855 23.8428 72.6924 23.5499C72.7995 23.2212 72.9994 22.9211 73.3206 22.7782C74.0059 22.4781 74.5699 23.114 74.8197 23.6856C75.4194 24.7502 74.5128 26.2935 73.2849 26.2435H73.2921Z" fill="#FF592C"/>
<path d="M64.0619 36.2893C62.3843 35.1747 64.2475 33.067 65.1327 32.0309C65.768 31.3022 66.3177 30.4948 66.9673 29.7803C67.7526 28.9157 68.8376 29.8589 68.8091 30.8163C68.8376 31.3093 68.5449 31.7094 68.2023 32.0309C67.8953 32.3668 67.6169 32.7311 67.3171 33.0741C66.6175 33.9172 65.7466 34.6174 65.1327 35.532C64.9257 35.9964 64.6972 36.6109 64.0619 36.2822V36.2893Z" fill="#FF592C"/>
<path d="M70.2867 39.5475C70.1511 39.4903 70.0298 39.4188 69.9155 39.3331C69.5943 39.4546 69.2374 39.4617 68.9019 39.3474C68.3807 39.1688 68.0167 38.7544 67.7383 38.3042C67.053 38.1756 66.6032 37.5326 66.3177 36.9395C66.1178 36.8609 65.9322 36.7109 65.7966 36.5537C65.7609 36.518 65.7323 36.4751 65.7038 36.4322C64.376 36.1893 64.5973 33.9815 65.8465 33.8458C65.9536 33.7672 66.075 33.7314 66.2035 33.7243C65.561 32.1738 67.7597 29.2658 69.3659 30.6591C69.5657 30.6948 69.7513 30.7663 69.9227 30.8806C70.0654 30.9806 70.1939 31.0949 70.301 31.2307C70.9792 31.3379 71.4718 31.8952 71.7502 32.4954C73.5348 33.2813 73.6847 36.225 72.6425 37.654C72.3998 38.6972 71.5146 40.0333 70.2867 39.526V39.5475Z" fill="#FF592C"/>
<path d="M72.6568 263.936C70.8221 263.936 69.2088 263.55 69.3444 261.356C69.2945 260.435 69.7942 259.549 69.6728 258.641C69.3516 257.448 71.0077 256.055 71.7216 257.462C72.0642 257.219 72.4926 257.134 72.9137 257.205C74.3058 257.184 75.6907 256.984 77.0684 256.819C77.8751 256.734 78.6746 256.662 79.4884 256.641C80.4021 256.534 81.4444 256.712 81.5372 257.805C81.8084 261.006 81.9441 264.214 77.7609 264.014C76.0547 263.979 74.3557 264.079 72.6568 263.943V263.936Z" fill="#B7E8FF"/>
<path d="M114.76 268.98C111.455 268.644 107.293 270.288 108.05 265.143C108.257 263.736 108.007 262.164 108.614 260.863C108.849 260.499 109.406 260.285 109.713 260.706C112.811 259.949 116.088 260.52 119.243 260.199C121.949 259.835 123.091 259.842 122.706 263.007C122.684 264.457 121.278 264.807 120.35 265.572C118.037 267.744 118.565 269.402 114.753 268.987L114.76 268.98ZM117.387 262.957C117.387 262.957 117.437 262.921 117.466 262.9C117.43 262.9 117.402 262.9 117.366 262.9C117.373 262.914 117.38 262.935 117.387 262.957ZM120.079 262.85C120.164 262.8 120.25 262.743 120.335 262.693C120.264 262.7 120.186 262.707 120.114 262.714C120.107 262.757 120.093 262.8 120.079 262.843V262.85Z" fill="#B7E8FF"/>
<path d="M88.8757 1.279C90.0107 0.743125 90.8102 1.90776 90.5104 2.95807C90.3819 3.47965 90.1392 3.9798 89.9108 4.46566C88.3545 7.62374 86.3272 10.5675 83.9572 13.1611C82.8078 14.3829 81.5514 15.4975 80.1951 16.4835C79.3099 17.1837 78.4961 17.9625 77.6609 18.7199C76.5544 19.7345 75.3837 20.892 74.3415 21.9637C73.8846 22.5639 73.4277 23.1712 73.0065 23.8C72.1428 25.0361 71.2219 26.2221 70.2653 27.3796C69.1874 28.7372 68.2094 30.1733 66.9958 31.4237C66.2962 32.1739 65.6038 32.9313 64.8828 33.6601C64.5758 33.9744 64.2046 34.296 63.7835 34.4317C63.6621 34.5032 63.5193 34.5389 63.3551 34.5246C63.3194 34.5246 63.2838 34.5103 63.2552 34.5032C63.191 34.5032 63.1338 34.4889 63.0696 34.4746C62.7127 34.4174 62.4271 34.1888 62.2487 33.8816C62.1844 33.8315 62.1273 33.7815 62.0702 33.7315C60.8995 32.7527 60.0857 31.4308 59.5931 30.0018C58.7293 27.8369 58.5937 25.4719 58.5865 23.1641C58.7936 17.9554 59.7787 13.9185 64.3902 10.9176C66.8602 9.2528 69.7585 8.28108 72.7281 8.07388C74.3129 7.99528 75.9191 7.83809 77.4824 8.18105C77.9607 8.30966 78.1963 8.35968 78.5318 8.56688C79.0672 8.95271 79.1672 9.67436 78.9601 10.246C79.4384 10.6103 79.624 11.1176 79.624 11.6821C80.4093 10.8104 81.1874 9.94586 81.9441 9.05274C83.3432 7.30222 84.8067 5.616 86.2415 3.90121C87.0268 2.95092 87.762 1.87203 88.8757 1.279Z" fill="#B7E8FF"/>
<path d="M118.979 263.986C118.244 263.25 118.858 261.878 119.779 261.628C120.364 261.464 121.064 261.914 121.071 262.535C121.121 263.514 119.893 264.743 118.979 263.986Z" fill="#B7E8FF"/>
<path d="M105.073 70.4424C105.266 72.5573 105.437 74.7294 104.852 76.8014C104.459 78.2733 103.524 79.5522 102.382 80.5311C101.233 81.4528 99.7049 81.8386 98.2558 81.8386C94.4438 81.9744 91.7383 78.5805 91.1243 75.0866C90.7317 73.3361 90.4604 71.5499 90.4319 69.7493C90.439 69.2778 90.3819 68.5775 90.7174 68.2274C90.9173 67.6415 91.5598 67.5272 92.0809 67.3843C93.4372 66.9128 94.8507 66.6412 96.2142 66.2126C97.4277 65.8624 98.677 65.6981 99.912 65.4409C100.447 65.3266 100.976 65.198 101.504 65.0694C101.961 64.9908 102.418 64.7836 102.889 64.8121C103.067 64.8479 103.224 64.9193 103.353 65.0193C103.817 65.0551 104.224 65.4623 104.331 65.9267C104.395 66.1768 104.438 66.434 104.488 66.6841C104.788 67.9059 104.966 69.1849 105.087 70.4352L105.073 70.4424Z" fill="#FFFBED"/>
<path d="M91.2314 71.9499C90.3819 71.5283 90.4533 70.3994 90.3891 69.592C90.1178 68.1773 90.2249 67.3128 91.7811 66.9127C93.7585 66.4625 95.7002 65.8338 97.699 65.4837C99.0339 65.3336 100.326 64.9263 101.661 64.8406C102.275 64.7477 102.932 64.7191 103.524 64.8978C103.874 64.9406 104.067 65.255 104.117 65.5837C104.138 65.7766 104.167 65.991 104.152 66.1839C104.174 66.5268 104.152 66.8626 103.852 67.0698C103.753 67.1413 103.595 67.1556 103.51 67.0627C103.453 67.0413 103.388 66.977 103.417 66.9127C103.253 66.5626 103.239 66.1696 103.11 65.8052C102.118 66.0481 101.14 66.484 100.162 66.7769C99.4123 67.027 98.627 67.1627 97.8489 67.2985C96.0071 67.7272 94.1511 68.0273 92.3236 68.4917C92.4735 69.1419 92.6948 69.7849 92.8233 70.4423C92.9875 70.8281 93.1945 71.2854 92.8804 71.6569C92.4807 72.1499 91.7739 72.2071 91.2314 71.9499Z" fill="#FFFBED"/>
<path d="M122.006 42.1553C120.714 41.5695 121.856 40.0833 122.149 39.1902C123.262 36.4394 124.626 33.81 125.739 31.0592C126.496 29.2444 127.231 27.4081 127.781 25.5147C128.124 24.4858 128.295 23.3926 128.752 22.4066C128.995 21.835 129.851 21.3492 130.294 21.9851C130.708 22.4995 129.68 26.0506 129.473 26.8508C128.352 30.6233 126.689 34.203 125.083 37.7826C124.797 38.4757 124.504 39.1616 124.212 39.8547C123.798 40.8192 123.362 42.4554 121.999 42.1553H122.006Z" fill="#FFFBED"/>
<path d="M125.104 43.4129C124.69 42.6913 125.268 41.9625 125.547 41.3052C125.847 40.6835 126.139 40.0548 126.425 39.4332C127.053 38.1113 127.66 36.7824 128.259 35.4463C129.273 33.217 130.337 31.0092 131.315 28.7657C131.636 28.0226 131.957 27.2796 132.293 26.5436C132.593 25.8577 132.878 25.1575 133.285 24.5287C133.456 24.2715 133.635 24.0357 133.92 23.8928C134.184 23.7571 134.52 23.8571 134.634 24.1358C134.777 24.5359 134.591 24.9574 134.491 25.3504C134.177 26.4793 133.742 27.5653 133.349 28.6657C131.736 33.0241 129.766 37.2468 127.845 41.4766C127.546 42.0625 127.324 42.7056 126.953 43.2486C126.539 43.813 125.54 44.1274 125.104 43.4201V43.4129Z" fill="#FFFBED"/>
<path d="M51.4123 119.714C50.627 119.636 48.307 119.914 47.9215 119.207C47.486 118.214 48.6568 117.678 49.4848 117.706C52.7115 117.656 55.9524 117.228 59.1577 116.921C60.1571 116.885 60.4497 118.007 59.8287 118.671C59.4361 119.164 58.8293 119.271 58.2296 119.278C55.9667 119.486 53.6895 119.736 51.4123 119.714Z" fill="#FFFBED"/>
<path d="M49.6847 124.308C49.0922 124.201 48.2142 124.18 48.0214 123.487C47.9286 123.037 48.207 122.615 48.5854 122.386C48.9709 122.151 49.4491 122.201 49.8846 122.229C52.3474 122.358 54.7745 121.843 57.1945 121.479C58.8293 121.6 58.1154 123.644 56.8519 123.773C54.489 124.137 52.0904 124.523 49.6919 124.308H49.6847Z" fill="#FFFBED"/>
<path d="M63.0268 134.468C61.8846 133.418 64.4402 132.775 65.147 132.611C67.5741 131.996 69.9726 131.253 72.4212 130.71C74.9054 130.167 77.3754 129.596 79.8453 129.003C82.3153 128.46 84.7567 127.802 87.1981 127.152C90.2463 126.395 93.323 125.766 96.3926 125.13C102.018 124.051 107.615 122.844 113.211 121.629C116.645 120.757 120.157 119.85 123.584 119.05C125.19 118.628 126.068 120.479 124.29 121.086C120.207 122 116.181 123.151 112.105 124.065C109.285 124.658 106.458 125.223 103.645 125.844C99.6407 126.68 95.7644 127.395 91.7882 128.267C88.4973 128.938 85.2707 129.896 82.0012 130.66C79.003 131.332 76.0191 132.053 72.9994 132.639C70.558 133.132 68.1666 133.84 65.718 134.297C64.84 134.39 63.8763 134.911 63.0268 134.476V134.468Z" fill="#FFFBED"/>
<path d="M87.9477 276.597C88.376 279.512 87.8263 283.377 85.235 285.156C83.5003 286.178 81.3659 285.728 79.4599 285.706C77.718 285.728 76.0048 286.207 74.2558 286.078C72.7496 286.121 71.2861 285.999 69.7942 285.856C67.8025 285.771 65.0399 285.578 64.6544 283.134C64.1904 280.712 64.4259 278.176 64.7686 275.746C65.1826 273.438 66.0535 271.245 66.8031 269.03C67.2386 267.751 67.8668 266.551 68.3736 265.3C68.7305 264.7 68.8447 263.385 69.5729 263.214C70.2368 262.757 71.0363 263.278 71.743 263.357C73.2493 263.686 74.7841 263.771 76.3189 263.636C77.7537 263.614 79.21 263.335 80.6306 263.521C81.4372 263.671 81.63 264.664 82.044 265.186C84.7853 268.523 87.7121 272.074 87.9405 276.589L87.9477 276.597Z" fill="#FFFBED"/>
<path d="M146.349 281.076C146.641 282.727 146.192 284.699 144.728 285.671C144.343 285.921 143.872 286.014 143.429 286.106C142.437 286.307 141.43 286.385 140.424 286.421C139.174 286.485 137.925 286.571 136.676 286.485C134.12 286.357 131.565 286.428 129.016 286.192C127.46 286.114 125.939 285.735 124.39 285.592C122.563 285.506 120.757 285.421 118.936 285.549C117.744 285.606 116.752 285.556 115.624 285.549C113.418 285.521 111.062 285.549 109.128 284.342C108.071 283.763 107.607 282.791 107.522 281.619C107.365 280.319 107.3 279.012 107.372 277.697C107.429 276.325 107.543 274.96 107.6 273.596C107.643 272.367 107.736 271.138 108.071 269.945C108.25 269.123 108.714 268.123 109.699 268.187C110.47 268.251 111.234 268.323 111.983 268.508C114.118 268.83 116.366 269.044 118.479 268.48C119.051 266.765 119.929 265.293 121.899 265.143C123.405 265.057 124.676 266.058 125.825 266.915C127.003 267.808 128.374 268.43 129.487 269.401C130.194 270.002 130.815 270.702 131.5 271.331C133.513 273.188 136.312 273.603 138.825 274.424C140.331 274.882 141.83 275.432 143.193 276.232C144.136 276.818 145.185 277.397 145.728 278.411C146.22 279.212 146.206 280.183 146.334 281.091L146.349 281.076Z" fill="#FFFBED"/>
<path d="M64.8543 279.798C64.3474 279.526 64.4831 278.526 64.3831 278.011C64.3974 276.825 64.4117 275.639 64.7186 274.482C64.9542 273.496 65.3397 272.552 65.5753 271.667C65.8537 270.681 65.9465 269.659 66.2463 268.68C66.5033 267.944 66.7888 267.222 67.0244 266.479C67.4456 265.365 67.6455 264.221 68.1809 263.157C68.7163 262.199 70.0083 262.235 70.4152 263.278C70.8792 264.357 70.1582 265.429 69.9227 266.479C69.4872 268.073 68.6377 269.509 68.1523 271.081C67.3456 273.446 66.5961 275.832 65.7894 278.197C65.5324 278.697 65.6466 279.933 64.8543 279.798Z" fill="#FFFBED"/>
<path d="M83.9786 285.385C83.1505 284.42 84.0643 283.227 84.4069 282.248C84.6211 281.648 84.8281 281.034 84.9209 280.398C85.2636 278.033 84.9495 275.653 84.1785 273.403C83.8858 272.252 83.5717 271.116 83.072 270.038C82.7579 269.087 82.4652 268.13 82.0797 267.201C81.6014 266.572 81.2731 265.872 81.0375 265.122C80.6163 265.358 80.1023 265.543 80.0238 264.879C79.981 264.314 81.0161 263.457 81.5515 263.65C82.2011 263.9 82.4866 264.607 82.8578 265.136C83.8001 266.322 84.2427 267.808 84.8495 269.173C85.649 270.831 86.1416 272.617 86.6342 274.375C87.1481 276.368 87.1196 278.44 86.934 280.476C86.7769 281.705 85.8775 286.628 83.9786 285.371V285.385Z" fill="#FFFBED"/>
<path d="M116.109 271.688C115.16 271.481 114.189 271.552 113.225 271.509C112.176 271.374 111.155 271.059 110.134 270.773C109.699 270.659 109.264 270.538 108.864 270.345C108.7 271.038 108.029 271.166 107.921 270.366C107.65 269.459 108.021 268.787 109.014 268.773C109.428 268.773 109.827 268.923 110.242 268.916C111.391 268.987 112.526 269.266 113.682 269.309C114.596 269.266 115.503 269.137 116.416 269.194C116.773 269.223 117.159 269.173 117.452 269.416C118.408 270.273 117.316 272.06 116.109 271.681V271.688Z" fill="#FFFBED"/>
<path d="M118.765 269.587C118.565 268.923 118.829 268.294 119.022 267.708C119.315 266.579 120.2 265.75 121.114 265.086C121.221 264.657 121.542 264.243 121.935 264.05C122.234 263.9 122.577 263.864 122.87 263.678C123.305 263.435 123.912 263.393 124.255 263.814C125.147 264.307 125.482 265.6 125.111 266.522C124.519 266.951 123.584 266.672 123.062 266.293C122.727 266.293 122.491 266.579 122.213 266.736C121.97 266.901 121.706 267.022 121.456 267.165C121.028 267.451 120.521 267.601 120.157 267.98C119.814 268.38 119.436 268.83 119.365 269.373C119.358 269.544 119.336 269.73 119.165 269.816C118.993 269.902 118.822 269.773 118.765 269.594V269.587Z" fill="#FFFBED"/>
<path d="M144.157 280.09C143.722 280.09 143.229 279.948 142.929 279.619C142.765 279.433 142.622 279.226 142.422 279.069C141.916 278.747 141.437 278.376 140.916 278.083C140.359 277.833 139.874 277.475 139.374 277.14C138.646 276.775 137.825 276.711 137.047 276.511C136.212 276.275 135.455 275.832 134.706 275.418C133.656 274.81 132.614 274.196 131.586 273.56C130.044 272.445 128.552 271.252 127.253 269.866C127.074 269.694 126.903 269.516 126.717 269.344C126.532 269.173 126.596 268.858 126.803 268.744C127.26 268.351 130.387 270.402 131.058 270.702C131.643 270.988 132.214 271.302 132.764 271.645C133.563 272.024 134.377 272.367 135.17 272.767C136.262 273.303 137.611 273.939 138.782 274.139C139.931 274.36 140.995 274.439 142.001 275.017C143.308 275.653 144.664 276.325 145.67 277.39C146.484 278.504 145.492 280.133 144.157 280.098V280.09Z" fill="#FFFBED"/>
<path d="M134.863 287.693C132.792 287.428 130.701 287.543 128.623 287.4C128.024 287.357 127.574 287.278 127.139 287.2C125.918 287.021 124.683 286.95 123.462 286.764C122.17 286.692 120.892 286.514 119.622 286.235C118.244 285.985 116.888 285.628 115.51 285.385C114.696 285.135 113.882 284.885 113.047 284.685C112.64 284.556 112.255 284.392 111.855 284.242C111.419 284.07 110.898 284.063 110.549 283.734C110.499 283.684 110.42 283.613 110.413 283.549C110.577 283.47 110.748 283.399 110.941 283.363C112.169 283.32 113.404 283.52 114.625 283.634C115.139 283.692 115.653 283.806 116.159 283.906C117.659 284.127 119.179 284.106 120.685 284.177C123.355 284.377 126.025 284.563 128.702 284.699C129.866 284.735 131.001 284.828 131.971 284.749C132.892 284.649 133.813 284.62 134.734 284.642C136.712 284.72 138.589 284.92 140.545 284.742C140.895 284.699 141.245 284.663 141.58 284.57C141.709 284.456 141.837 284.349 141.98 284.249C142.465 283.892 142.979 283.584 143.457 283.234C144.021 282.377 145.728 281.905 146.12 283.134C146.413 284.699 144.643 285.421 143.7 286.314C142.572 287.55 141.202 287.607 139.645 287.707C138.054 287.778 136.455 287.843 134.87 287.686L134.863 287.693Z" fill="#FFFBED"/>
<path d="M89.2612 0.114379C90.7603 -0.3429 92.0095 0.578803 91.6169 2.19357C91.2671 3.90122 90.2677 5.39452 89.3682 6.85924C87.6407 9.32426 85.7847 11.725 83.8858 14.0542C83.3575 14.5187 82.5509 14.4472 82.6936 13.5755C82.7365 13.2326 82.9649 12.9682 83.1576 12.7038C84.1214 11.4249 85.0994 10.1459 86.0702 8.86698C87.3552 7.16648 89.7894 4.05127 89.9679 1.93635C88.89 1.30045 86.4914 4.31563 85.7347 5.05156C84.6353 6.25907 83.5431 7.47371 82.5009 8.72408C82.2225 9.05275 81.937 9.38142 81.6443 9.70295L81.63 9.71724C81.4658 9.87443 81.3016 10.0388 81.1517 10.2102C81.0803 10.2674 81.0161 10.3389 80.9518 10.396C80.909 10.4317 80.8733 10.4746 80.8305 10.5103C80.8162 10.5246 80.7948 10.5461 80.7805 10.5675L80.7662 10.5818C80.6877 10.6675 80.5949 10.7533 80.5378 10.8533C80.5235 10.8747 80.5164 10.9033 80.5092 10.9247C80.495 10.939 80.4807 10.9533 80.4664 10.9748C80.4022 11.0462 80.3308 11.1248 80.2665 11.2034C79.931 11.5606 79.5955 11.9179 79.26 12.268C78.3891 13.2611 77.5396 14.2614 76.6115 15.2046C76.1547 15.6904 75.7049 16.1906 75.2481 16.6765C75.141 16.7979 74.9126 16.9622 74.7484 16.9622C74.6484 16.9622 74.5699 16.9122 74.5414 16.7693C74.5485 16.2692 74.9554 15.8834 75.2052 15.4761C75.5336 15.0045 75.8549 14.533 76.2046 14.0757C76.9828 13.0397 77.6895 11.9393 78.539 10.9605C79.5241 9.83156 80.5521 8.74552 81.5372 7.61661C83.329 5.58029 84.9352 3.35106 86.9483 1.52194C87.6336 0.928908 88.376 0.357309 89.254 0.107234L89.2612 0.114379Z" fill="#601124"/>
<path d="M74.1987 17.1767C73.7561 16.8123 74.0988 16.2121 74.3772 15.8763C74.3629 15.8977 74.3557 15.912 74.3415 15.9334C74.3415 15.9334 74.3415 15.9406 74.3343 15.9477C75.605 14.2043 77.0113 12.8325 78.4533 11.282C79.6883 9.95308 80.9161 8.56695 82.2725 7.38088C82.4295 7.33087 82.558 7.45233 82.5295 7.61667C82.3153 8.10253 81.8084 8.54552 81.5015 8.93849C80.8947 9.67442 80.3093 10.4246 79.7311 11.182C78.6675 12.5681 77.5538 13.9043 76.483 15.2832C76.1118 15.7477 75.7478 16.255 75.3766 16.7051C75.1267 17.0695 74.6484 17.4982 74.1987 17.1838V17.1767Z" fill="#601124"/>
<path d="M62.9411 35.2892C62.1987 34.8819 61.6205 34.2103 61.0565 33.5887C60.3641 32.8313 59.7716 31.981 59.2576 31.0951C58.1511 29.2802 57.6728 27.1796 57.3587 25.1147C57.166 23.0998 57.6014 21.0778 58.1154 19.1415C58.3367 18.2913 58.5794 17.3838 58.9292 16.5907C60.0714 13.597 62.2344 11.0248 64.9542 9.34573C67.4599 7.92388 70.3439 7.06648 73.2421 7.28798C75.1553 7.4666 77.0042 8.03106 78.8531 8.51692C79.3456 8.66696 79.8239 8.86702 80.3236 8.98134C80.8305 9.05279 81.3016 9.59581 81.2731 10.096C81.2302 10.1388 81.1874 10.1888 81.1446 10.2317C81.0732 10.2889 81.0089 10.3603 80.9447 10.4175C80.9019 10.4532 80.8662 10.4961 80.8233 10.5318C80.8091 10.5461 80.7877 10.5675 80.7734 10.589C80.7734 10.589 80.7662 10.6033 80.7591 10.6033C80.7163 10.6461 80.6734 10.689 80.6306 10.739C80.1238 10.8033 79.5527 10.4532 79.0815 10.3032C78.6032 10.1174 78.1035 9.9602 77.611 9.8173C75.141 9.06708 73.1922 8.45976 70.5652 8.90989C68.7805 9.25285 67.0744 10.0459 65.5753 11.0605C64.2546 12.0751 63.0553 13.254 62.163 14.6687C61.0851 16.3621 60.4069 18.2841 59.9786 20.2418C59.6859 21.4708 59.4361 22.6783 59.3504 23.9358C59.2362 25.229 59.5003 26.5151 59.7859 27.7726C60.1142 29.3445 60.8567 30.745 61.6419 32.0811C62.0845 32.8027 62.5485 33.5172 63.091 34.1674C63.2909 34.4461 63.5836 34.7176 63.6122 35.0748C63.6122 35.2963 63.4337 35.3821 63.2481 35.3821C63.1339 35.3821 63.0125 35.3535 62.9269 35.2963L62.9411 35.2892Z" fill="#601124"/>
<path d="M74.3486 17.1338C74.1202 16.6551 74.934 16.012 75.1624 15.6119C75.7549 14.8117 76.4188 14.0614 77.0613 13.3041C78.6532 11.5464 80.0595 9.68156 81.6728 7.9882C81.7799 7.87388 81.8799 7.75241 82.0155 7.65953C82.4152 7.36658 82.9935 7.44518 82.865 8.05965C82.6865 8.54551 82.2296 8.9099 81.9441 9.28858C80.4307 11.1248 79.0173 13.0326 77.3754 14.7474C76.8685 15.2832 76.3688 15.8191 75.8477 16.3407C75.5051 16.6122 74.8055 17.6339 74.3629 17.1338H74.3486Z" fill="#601124"/>
<path d="M65.3468 33.7887C64.7258 33.8316 64.7258 33.0027 64.9899 32.6312C65.4539 32.0167 65.9679 31.4594 66.4533 30.8735C67.0672 30.1376 67.6098 29.3374 68.2023 28.5871C68.8376 27.8369 69.5015 27.1081 70.1083 26.3365C71.1577 25.1075 72.1928 23.8572 73.185 22.5782C73.7061 21.9637 74.1416 21.2921 74.627 20.6562C74.8555 20.2704 75.3694 19.8988 75.7335 20.3347C75.9263 20.5633 75.9405 20.8848 75.8691 21.1635C75.7978 21.4279 75.5836 21.6208 75.448 21.8566C74.8983 22.7282 74.3272 23.5785 73.7347 24.4145C73.0779 25.3862 72.3784 26.315 71.6574 27.2367C70.8864 28.3442 69.9941 29.3516 69.0803 30.3377C68.4164 31.1093 67.7668 31.9024 67.0101 32.5955C66.6603 32.9241 66.3177 33.26 65.9322 33.5529C65.7609 33.6815 65.561 33.8101 65.3397 33.803L65.3468 33.7887Z" fill="#601124"/>
<path d="M81.3302 21.7351C80.9161 21.6636 80.5592 21.2992 80.5878 20.8634C80.6449 20.3489 81.1517 20.1131 81.5443 19.8845C82.1868 19.3272 82.7864 18.6627 83.1434 17.8839C83.3718 17.0051 84.3141 17.0265 84.6496 17.8125C84.8638 18.2626 84.6425 18.727 84.4497 19.1414C84.0072 20.1131 82.5295 21.978 81.3373 21.7351H81.3302Z" fill="#601124"/>
<path d="M96.414 29.5446C97.3206 28.8443 97.8989 30.2305 97.3563 30.9235C96.0999 33.1099 93.5086 34.0388 92.3236 36.268C91.3885 37.9756 91.7954 40.0977 91.8596 41.9697C91.8596 44.449 92.6377 46.9283 92.1594 49.3862C91.6455 53.2588 86.1273 53.2802 83.1005 53.3302C79.467 53.123 75.0411 52.2799 72.8495 49.0789C71.7858 47.4499 72 45.4207 72.0286 43.563C72.1214 42.6056 71.9572 40.3835 72.7995 39.8405C73.8489 39.6404 73.3778 41.9197 73.5205 42.5556C73.6776 44.0346 73.4134 45.5922 73.956 47.0069C74.7055 48.5073 76.2546 49.4719 77.8251 49.9506C80.9661 50.9081 84.2998 51.1653 87.555 50.6651C89.8537 50.2579 90.7032 49.9149 90.5675 47.3713C90.282 44.0417 89.7966 40.6764 90.2391 37.3469C90.5818 35.3463 91.9453 33.6029 93.5086 32.3668C94.6722 31.638 95.6288 30.6449 96.4212 29.5446H96.414Z" fill="#601124"/>
<path d="M101.361 24.3144C99.1481 23.8 98.8912 21.1206 99.1624 19.2343C99.4337 17.4624 100.283 15.7976 101.39 14.3972C102.253 13.3468 104.566 11.4534 105.958 11.582C107.807 11.8607 108.407 14.0185 108.321 15.6332C108.271 16.7907 108.107 17.9625 107.686 19.0414C106.665 21.5207 104.395 24.7217 101.361 24.3073V24.3144ZM101.946 22.1852C104.416 21.9351 106.458 18.6627 106.758 16.3763C106.865 15.4332 107.072 14.1328 106.151 13.5326C105.93 13.4254 105.673 13.4826 105.466 13.5826C104.995 13.797 104.545 14.0328 104.109 14.3186C103.731 14.5829 103.374 14.883 103.039 15.1974C102.832 15.4046 102.625 15.7261 102.339 15.7976C101.611 16.9694 100.94 18.2412 100.74 19.6201C100.654 20.2132 100.711 20.8205 100.819 21.4064C100.897 21.9494 101.44 22.2495 101.954 22.1852H101.946Z" fill="#601124"/>
<path d="M108.071 15.3618C107.943 16.3621 106.943 16.0477 106.943 15.176C106.929 14.8616 106.872 14.6044 106.758 14.4044C106.565 14.0543 106.208 13.8899 105.644 13.9257C103.595 14.3115 101.925 16.6979 100.947 18.6628C100.804 18.9557 100.676 19.2344 100.562 19.4987C100.447 19.7703 100.376 20.0346 100.312 20.3061C100.29 20.4776 100.197 20.7062 99.9833 20.6634C99.4337 20.5562 99.9691 18.9414 100.055 18.5556C100.797 16.1335 102.532 13.3755 105.087 12.6396C105.808 12.4395 106.594 12.611 107.179 13.0683C107.764 13.647 108.057 14.5401 108.079 15.3547L108.071 15.3618Z" fill="#601124"/>
<path d="M95.9144 9.57432C96.6211 9.23136 97.1065 10.003 96.8781 10.6318C96.771 11.0248 96.4141 11.2391 96.1571 11.532C96.0143 11.6964 95.8787 11.8679 95.7502 12.0536C95.3504 12.6752 94.9792 13.3183 94.6437 13.9685C94.4938 14.3686 94.0869 14.9545 93.6586 14.4972C93.3373 14.0399 93.58 13.4612 93.68 12.9682C94.0298 11.6464 94.7865 10.3817 95.9144 9.57432Z" fill="#601124"/>
<path d="M97.2493 15.1402C96.0286 14.5686 97.7347 11.9178 98.37 11.3034C99.4979 10.4103 100.119 12.1751 99.2267 12.861C98.7841 13.304 98.4414 13.8398 98.0702 14.34C97.8703 14.6472 97.7276 15.2474 97.2493 15.1402Z" fill="#601124"/>
<path d="M100.305 10.0602C100.305 9.11702 101.597 8.73834 102.332 8.53113C102.646 8.45968 103.024 8.32393 103.331 8.45254C104.081 8.7955 103.86 10.1388 102.996 10.1102C102.46 10.1745 101.925 10.2674 101.425 10.4246C100.94 10.6961 100.383 10.7389 100.305 10.0602Z" fill="#601124"/>
<path d="M124.397 20.6419C124.569 22.2996 124.048 23.8858 123.477 25.4148C122.656 27.9298 121.442 30.2948 120.386 32.717C120.086 33.3386 119.757 33.9388 119.429 34.5461C118.815 35.6393 118.322 36.8039 117.616 37.8542C116.595 39.226 114.982 41.7196 113.004 41.098C111.948 40.7979 111.405 39.6762 111.255 38.6616C111.034 36.7039 111.905 34.7676 113.097 33.2457C112.633 33.0313 112.162 32.8099 111.691 32.6026C110.192 31.9024 108.771 31.0379 107.222 30.452C105.237 29.7161 103.196 29.0087 101.061 28.9516C98.6699 28.9087 96.564 28.63 94.6151 27.1153C93.7442 26.4365 92.9875 25.5505 92.6663 24.4717C92.6663 24.4502 92.6591 24.4216 92.652 24.4002C91.3885 24.3716 90.1321 24.2359 89.0756 23.4785C86.3343 21.4493 87.9048 16.8408 89.5182 14.5258C89.8537 13.9685 90.3034 13.5113 90.7531 13.0468C90.8816 12.9111 91.0672 12.7539 91.26 12.7324C92.3522 12.9682 91.0815 14.3329 90.8816 14.8831C89.9965 16.6336 89.2469 18.5485 89.3254 20.5419C89.5539 21.8137 91.0387 22.3139 92.1666 22.4639C94.2582 22.7426 96.3641 22.9712 98.47 23.1213C99.2552 23.157 99.2195 24.5288 98.4343 24.5288C96.9495 24.5288 95.4718 24.4216 93.9869 24.4216C94.7294 25.4362 95.9786 25.9578 97.1636 26.2865C98.9483 26.7366 100.804 26.6937 102.596 27.0796C104.159 27.4011 105.609 28.1227 107.086 28.7158C109.128 29.5517 110.97 30.7664 112.94 31.7024C114.218 32.2883 115.474 32.9242 116.781 33.4386H116.788C116.838 33.3314 116.88 33.2314 116.916 33.1385C117.073 32.7527 117.209 32.3526 117.352 31.9596C117.901 30.3806 118.401 28.7801 119.043 27.2296C119.322 26.4008 119.572 25.6506 119.872 24.8861C119.764 24.8432 119.657 24.786 119.55 24.7146C117.723 23.6714 116.06 22.3782 114.439 21.0421C109.592 17.1981 111.912 14.5473 108.336 12.0608C107.914 11.7393 106.929 11.4321 107.272 10.7461C107.615 10.346 108.257 10.6461 108.635 10.839C110.306 11.7036 111.598 13.1826 112.326 14.9045C113.268 17.491 114.667 18.9057 116.695 20.6705C116.966 20.9135 117.237 21.1564 117.516 21.3922C117.68 20.9349 117.93 20.4848 118.115 20.1204C118.815 18.8771 119.843 17.3767 121.342 17.1338C123.448 16.9909 124.276 18.8271 124.397 20.6491V20.6419Z" fill="#601124"/>
<path d="M126.839 45.335C126.353 45.2564 125.918 44.9778 125.461 44.8063C124.447 44.3633 123.441 43.9346 122.434 43.4773C120.978 42.77 119.479 42.1198 118.101 41.2695C117.823 41.0695 117.48 40.6765 117.687 40.3121C118.03 39.8191 118.872 40.2907 119.315 40.4121C120.771 40.898 122.142 41.6482 123.526 42.2913C124.504 42.7414 125.49 43.1773 126.468 43.6202C126.867 43.7846 127.281 43.9918 127.524 44.3705C127.974 44.9778 127.51 45.4279 126.839 45.3422V45.335Z" fill="#601124"/>
<path d="M122.156 47.0426C121.77 46.6425 121.371 46.2495 121.007 45.828C120.849 45.6279 120.671 45.385 120.65 45.1277C120.635 44.8848 120.8 44.6776 121.049 44.6776C121.549 44.7062 121.942 45.0777 122.32 45.3635C122.648 45.6279 123.02 45.8637 123.312 46.1709C124.183 47.2641 123.012 47.9286 122.149 47.0426H122.156Z" fill="#601124"/>
<path d="M105.373 48.6574C104.388 47.8 103.774 46.6425 102.953 45.6637C102.518 45.1135 102.132 44.4704 101.475 44.1489C100.169 43.6202 98.6984 43.9489 97.442 44.4704C96.1785 45.0563 95.1862 46.0638 94.3581 47.1498C94.2796 47.2498 94.2082 47.3499 94.1083 47.4213C93.8727 47.5928 93.5872 47.4356 93.5515 47.1641C93.5229 46.8069 93.7442 46.4925 93.9012 46.1924C94.4652 45.1635 95.1791 44.1989 96.0928 43.463C97.7418 42.084 100.162 41.391 102.225 42.1769C103.217 42.5556 103.845 43.4344 104.488 44.2275C105.223 45.0706 105.716 46.1209 106.615 46.814C108.2 47.3284 108.364 44.1203 112.305 43.956C113.026 43.8846 113.732 44.0489 114.439 44.1203C114.967 44.1704 115.653 44.0489 116.117 43.8988C116.374 43.8274 116.631 43.7417 116.866 43.5988C117.03 43.4773 117.216 43.3987 117.423 43.3916C117.808 43.3558 118.087 43.7274 118.13 44.0703C118.237 45.3636 116.681 45.7708 115.71 46.0995C114.082 46.6211 112.297 45.9923 110.706 46.7211C109.835 47.1141 109.349 47.9929 108.571 48.5145C107.664 49.1576 106.287 49.4505 105.373 48.6574Z" fill="#601124"/>
<path d="M113.911 73.6076C113.754 73.1003 114.032 72.5359 114.346 72.1429C114.753 71.6642 115.196 71.1855 115.624 70.7425C117.23 69.1277 119.001 67.6916 120.707 66.184C123.933 63.326 127.481 60.8467 130.644 57.9101C132.871 55.7237 135.198 53.616 137.09 51.1224C138.239 49.6791 139.403 48.2429 140.573 46.8211C141.965 45.1635 143.215 43.3415 143.814 41.3052C144.493 39.1974 144.328 38.1614 143.629 36.1036C142.779 33.7029 141.323 31.5237 139.724 29.5802C138.475 28.2227 137.126 26.9723 135.676 25.8363C133.778 24.6359 131.914 23.3784 130.008 22.1852C129.109 21.5064 127.91 21.1992 127.174 20.3132C126.939 19.8631 127.36 19.4344 127.881 19.6559C128.431 19.8916 128.952 20.1846 129.516 20.4061C131.322 21.242 133.092 22.1423 134.82 23.1355C136.24 23.8285 137.547 24.7288 138.753 25.7577C139.76 26.6579 140.723 27.6082 141.587 28.6371C142.173 29.3873 142.708 30.1733 143.229 30.9735C144.478 32.8955 145.392 35.0462 145.806 37.304C146.213 39.4475 145.371 41.8696 144.485 43.8059C143.179 46.3781 141.316 48.6145 139.381 50.7365C138.296 52.0012 137.24 53.2944 136.119 54.5377C134.884 55.8381 133.613 57.0956 132.364 58.3817C130.708 60.1393 128.83 61.6612 127.01 63.2403C124.761 65.2123 122.413 67.0557 120.143 68.9991C119.086 69.9137 117.987 70.7711 116.945 71.6999C116.259 72.2715 115.703 72.9932 115.024 73.5648C114.81 73.7077 114.568 73.8005 114.311 73.7934C114.168 73.7934 113.982 73.7648 113.925 73.6219L113.911 73.6076Z" fill="#601124"/>
<path d="M124.833 126.531C124.554 126.323 124.476 126.002 124.44 125.673C124.376 125.223 124.283 124.78 124.19 124.33C123.855 122.422 123.455 120.522 123.177 118.607C122.684 115.134 121.785 111.74 120.728 108.404C119.836 105.717 118.965 103.016 117.709 100.473C116.988 99.201 116.224 97.9577 115.567 96.6502C114.974 95.4784 114.296 94.3067 114.054 92.9991C113.768 90.777 114.054 88.3835 112.997 86.3329C112.697 85.7184 112.29 85.1611 111.841 84.6395C111.17 83.8035 110.677 82.8032 110.591 81.7315C110.52 80.6669 110.913 78.1304 111.876 77.6303C112.069 77.5731 112.247 77.7231 112.297 77.9018C112.419 78.3662 112.112 78.7949 112.019 79.2379C111.07 84.3108 114.996 82.2745 115.538 89.6124C115.617 90.4269 115.645 91.2557 115.724 92.0703C115.917 93.3635 116.723 94.4781 117.309 95.6213C117.916 96.7502 118.565 97.8577 119.122 99.0081C119.964 100.866 120.55 102.831 121.178 104.767C121.949 107.175 122.72 109.583 123.284 112.048C124.14 115.556 124.583 119.143 125.325 122.672C125.44 123.387 125.611 124.101 125.747 124.809C125.797 125.259 125.982 125.73 125.775 126.166C125.632 126.516 125.183 126.766 124.847 126.516L124.833 126.531Z" fill="#601124"/>
<path d="M104.709 93.1849C103.917 92.499 105.259 91.3558 105.687 90.7914C106.201 90.1912 106.729 89.6124 107.279 89.048C107.693 88.5907 108.15 88.1691 108.55 87.6976C108.971 87.2617 109.699 87.4618 109.835 88.0548C110.199 89.0908 108.757 90.134 107.857 91.0486C107.336 91.5273 106.894 91.956 106.422 92.3347C105.93 92.6919 105.387 93.5136 104.709 93.1778V93.1849Z" fill="#601124"/>
<path d="M109.299 93.9637C108.535 93.8637 108.692 92.8348 109.021 92.3775C109.278 92.0417 109.485 91.5987 109.913 91.4558C110.334 91.3058 110.734 91.6702 110.784 92.0775C110.87 92.549 110.641 92.9992 110.313 93.3207C110.042 93.6208 109.742 93.9852 109.299 93.9637Z" fill="#601124"/>
<path d="M60.928 114.606C60.3926 114.206 60.4783 113.455 60.5283 112.869C60.5997 111.833 60.6996 110.797 60.7781 109.761C61.0066 106.703 61.3778 103.652 61.8632 100.623C62.7627 95.2284 64.0405 89.884 65.8965 84.7396C66.5247 83.0605 67.2885 81.4386 67.9524 79.7667C68.0524 79.4666 68.445 78.9807 68.6877 79.4666C68.7805 79.7381 68.702 80.031 68.6377 80.3026C68.5521 80.6741 68.4593 81.0456 68.3593 81.4172C67.2814 85.1326 66.1892 89.0123 65.2897 92.7348C64.326 97.3076 63.6621 101.93 62.8983 106.539C62.6984 107.968 62.4628 109.397 62.2772 110.833C62.1701 111.662 62.0631 112.498 61.9917 113.334C61.9631 113.834 61.5205 114.949 60.928 114.613V114.606Z" fill="#601124"/>
<path d="M69.116 88.5121C68.6734 88.0405 68.8733 87.2546 68.9947 86.7187C69.166 86.1685 69.5658 83.2677 70.5223 84.1822C70.8221 84.6895 70.5366 85.3326 70.4938 85.8756C70.2939 86.7401 70.4367 87.8119 69.7371 88.4692C69.5658 88.6335 69.2945 88.7193 69.116 88.5121Z" fill="#601124"/>
<path d="M50.7341 129.16C48.1356 129.088 46.8721 126.595 46.9292 124.244C46.865 122.587 48.0143 121.243 48.2213 119.664C48.0143 117.128 46.2867 116.356 47.1791 112.862C47.5931 110.669 49.1922 108.125 48.1071 105.96C47.4146 105.138 46.6008 104.374 46.1939 103.352C45.1089 101.144 46.3795 98.9366 46.8436 96.7574C47.3004 94.3138 46.4866 91.9274 46.4152 89.4909C46.0797 84.9253 47.5289 80.4597 49.0208 76.2013C50.7412 71.3427 53.1041 66.7199 56.3807 62.7115C57.5657 61.0182 58.8578 59.3963 60.3355 57.9458C62.1202 56.474 63.7621 54.8521 65.4753 53.3016C66.9387 51.9583 68.5092 50.758 70.1297 49.6148C70.4438 49.3576 71.0791 48.836 71.2433 49.4647C71.2433 50.1364 70.4938 50.5651 70.094 51.0438C69.0446 52.0298 68.0095 53.0372 67.0101 54.0733C65.4325 55.588 64.0476 57.3028 62.37 58.7103C60.4926 60.3751 59.0077 62.4186 57.5729 64.4549C54.5532 68.1203 52.5116 72.4216 50.8911 76.8586C49.8132 79.9024 48.6282 83.0247 48.3641 86.2257C48.1785 89.8768 49.6133 93.485 48.7567 97.1075C48.4783 98.4222 47.8073 99.6297 47.6002 100.959C48.0071 104.624 51.3266 103.86 49.7847 109.597C49.2278 111.94 47.9572 114.434 49.3064 116.742C49.6919 117.564 49.9488 118.45 49.8917 119.371C49.9203 120.843 48.9709 122.058 48.6853 123.451C48.4069 125.33 49.285 127.216 51.4194 127.145C53.4039 127.124 55.3599 126.681 57.2731 126.173C58.2082 126.188 60.514 124.751 60.7281 126.173C60.8566 127.567 59.072 127.545 58.1511 127.981C55.724 128.567 53.2683 129.353 50.7412 129.153L50.7341 129.16Z" fill="#601124"/>
<path d="M51.9619 115.927C51.7549 115.799 51.6621 115.57 51.7192 115.327C51.8263 114.891 52.2903 114.784 52.6544 114.634C53.2826 114.398 53.8822 114.105 54.5104 113.87C55.0672 113.684 55.6098 113.37 56.2023 113.341C56.9804 113.462 56.909 114.47 56.3308 114.813C55.5598 115.12 54.796 115.299 54.0107 115.534C53.6395 115.656 53.2683 115.763 52.8971 115.863C52.5973 115.927 52.2475 116.085 51.9548 115.92L51.9619 115.927Z" fill="#601124"/>
<path d="M53.2826 112.262C52.9756 112.241 52.7472 111.926 52.8685 111.626C52.997 111.269 53.354 111.062 53.6823 110.933C54.1892 110.769 54.6603 110.504 55.1672 110.34C55.9738 110.068 56.2665 111.205 55.674 111.633C55.4384 111.805 55.1386 111.812 54.8816 111.919C54.3605 112.062 53.8323 112.298 53.2826 112.262Z" fill="#601124"/>
<path d="M72.9994 250.51C70.5723 250.432 68.1309 250.417 65.718 250.182C64.9399 250.067 64.1761 249.86 63.4051 249.71C62.1487 249.446 61.0494 248.46 60.8281 247.174C60.2356 244.523 60.2641 241.793 60.3141 239.093C60.3712 235.742 60.464 232.384 60.4355 229.033C60.4355 226.882 60.4141 224.724 60.4355 222.573C60.4355 219.744 60.6639 216.922 60.7139 214.092C60.7567 209.848 60.8281 205.604 61.0208 201.367C61.235 194.558 61.6419 187.749 61.7276 180.932C61.8132 177.624 61.7133 174.309 61.7704 171.001C61.7989 168.893 61.8846 166.793 61.8632 164.685C61.8632 162.398 61.9917 160.119 62.0845 157.84C62.163 155.554 62.0702 153.267 62.1059 150.988C62.2915 144.586 62.4343 138.184 62.3343 131.775C62.2915 129.36 62.4486 126.945 62.5985 124.53C62.6699 123.494 62.6342 122.451 62.7627 121.415C62.8198 121.115 62.8983 120.757 63.1838 120.586C63.4194 120.45 63.6193 120.7 63.605 120.922C63.6693 122.201 63.7549 123.473 63.7692 124.759C63.7906 126.623 63.6978 128.488 63.7478 130.353C63.862 134.376 64.0547 138.391 64.0547 142.414C64.119 145.901 63.7835 149.38 63.6907 152.867C63.6621 153.967 63.6693 155.068 63.655 156.168C63.6336 158.419 63.4051 160.655 63.3337 162.906C63.2695 165.099 63.2695 167.286 63.1981 169.479C63.1053 174.938 63.0482 180.389 63.0982 185.848C62.984 191.629 62.6627 197.409 62.5199 203.189C62.3915 206.826 62.42 210.463 62.42 214.107C62.3343 219.594 62.0774 225.074 62.0417 230.562C62.0202 232.855 61.9774 235.156 61.8489 237.449C61.7561 240.029 61.5991 242.615 61.9417 245.18C62.1273 246.002 62.0559 247.045 62.8555 247.538C63.3052 247.881 63.8763 247.931 64.4117 248.031C66.3677 248.51 68.3879 248.488 70.3867 248.545C71.9144 248.531 73.4135 248.667 74.934 248.61C75.9263 248.638 76.9542 248.453 77.9251 248.367C79.3456 248.231 80.7805 248.095 82.1797 247.81C83.3147 247.624 83.3361 249.431 82.3224 249.617C81.066 249.939 79.6954 250.117 78.4176 250.203C76.6187 250.425 74.8055 250.682 72.9923 250.539L72.9994 250.51Z" fill="#601124"/>
<path d="M86.0916 245.23C85.542 244.637 85.8346 243.787 85.8846 243.072C85.9703 242.322 86.0631 241.579 86.1559 240.836C86.5199 237.542 86.9911 234.12 87.3123 230.84C87.8406 225.324 88.3831 219.908 88.7757 214.407C89.1612 209.72 89.7823 205.061 90.1178 200.374C90.3748 197.23 90.696 194.237 91.0244 191.136C91.3028 187.299 91.5955 183.469 91.8882 179.632C92.0595 175.967 92.4093 172.323 92.702 168.665C93.216 162.613 93.7157 156.64 94.5866 150.666C94.7079 149.788 94.7936 148.894 94.972 148.023C94.9935 147.866 95.1148 147.701 95.2861 147.694C95.4575 147.694 95.5646 147.851 95.5717 148.008C95.5931 148.43 95.5931 148.88 95.6074 149.287C95.7145 153.11 95.3647 156.918 95.1291 160.734C94.7508 168.207 94.0298 175.652 93.423 183.112C93.1588 185.648 93.0803 188.192 92.909 190.735C92.1737 199.181 91.21 207.598 90.182 216.007C89.3326 223.517 88.8257 230.933 87.7121 238.378C87.5122 239.986 87.2981 241.586 87.0768 243.187C86.9625 243.801 86.9982 244.48 86.6127 245.002C86.5271 245.116 86.3772 245.287 86.2201 245.295C86.1701 245.295 86.1273 245.259 86.0916 245.23Z" fill="#601124"/>
<path d="M110.477 249.782C104.131 249.817 101.989 248.46 101.111 241.986C100.826 239.929 100.783 237.842 100.64 235.77C100.512 233.141 100.34 230.511 100.162 227.882C99.7192 218.901 99.0268 210.077 98.4271 201.124C98.1202 194.608 97.5062 188.049 97.0993 181.547C96.8923 178.832 96.7852 176.067 96.6567 173.359C96.4069 170.158 96.1999 166.957 96.0999 163.756C95.8501 160.169 95.3647 156.597 95.1576 153.003C95.0434 151.531 95.1576 150.052 95.1576 148.58C94.9863 148.344 95.0791 147.923 95.3718 147.844C95.5645 147.787 95.7359 147.901 95.8001 148.087C95.8287 148.173 95.8501 148.251 95.8786 148.337C96.207 149.23 96.2641 150.18 96.3427 151.124C96.4355 152.131 96.5425 153.131 96.6639 154.132C97.2707 158.576 97.7846 163.184 97.9631 167.621C98.0845 169.5 98.2844 171.372 98.37 173.252C98.4985 177.117 98.6556 180.99 98.934 184.848C99.2195 188.792 99.6121 192.722 99.8548 196.673C99.9548 198.688 100.055 200.71 100.219 202.717C100.84 210.127 101.454 217.665 101.797 225.081C102.032 229.547 102.289 234.02 102.653 238.464C102.896 240.836 102.996 243.351 104.138 245.502C104.702 246.388 105.701 246.859 106.722 246.966C107.764 247.174 108.828 247.174 109.885 247.188C112.297 247.209 114.71 247.145 117.123 247.038C118.993 247.066 120.7 246.988 122.563 246.916C123.098 246.902 123.498 246.831 124.005 246.781C124.654 246.788 125.033 247.538 124.861 248.117C124.797 248.353 124.683 248.574 124.49 248.731C124.233 248.924 123.898 248.96 123.591 249.024C122.27 249.26 120.928 249.288 119.593 249.439C116.552 249.474 113.525 249.86 110.484 249.796L110.477 249.782Z" fill="#601124"/>
<path d="M126.71 243.458C125.911 243.022 126.211 242.108 126.211 241.4C126.261 240.515 126.296 239.629 126.289 238.743C125.975 227.911 125.561 217.065 125.033 206.247C124.761 198.202 124.397 190.164 124.176 182.126C123.919 176.467 123.698 170.801 123.655 165.135C123.612 159.755 123.755 154.375 123.684 148.994C123.569 143.757 123.469 138.52 123.619 133.283C123.634 132.082 123.555 130.882 123.619 129.682C123.648 129.489 123.698 129.103 123.962 129.103C124.098 129.103 124.176 129.217 124.24 129.324C124.54 129.939 124.512 130.646 124.619 131.311C124.897 133.304 124.954 135.319 124.997 137.327C125.061 139.877 125.083 142.428 125.154 144.979C125.304 147.244 125.354 149.509 125.468 151.774C125.618 157.09 125.454 162.413 125.582 167.729C125.682 170.022 125.654 172.316 125.739 174.602C125.832 176.881 125.918 179.168 126.018 181.447C126.225 189.556 126.596 197.659 126.939 205.761C126.939 205.733 126.939 205.718 126.939 205.69C127.474 214.807 127.66 223.831 127.981 232.941C128.059 235.563 128.081 238.192 127.874 240.807C127.788 241.479 127.817 242.172 127.653 242.829C127.531 243.201 127.153 243.594 126.732 243.437L126.71 243.458Z" fill="#601124"/>
<path d="M104.695 166.721C104.181 166.314 104.167 165.614 104.067 165.021C103.595 162.706 103.374 160.333 103.396 157.976C103.417 157.661 103.581 157.097 103.995 157.161C104.466 157.318 104.509 157.918 104.623 158.326C104.98 159.74 105.223 161.184 105.459 162.627C105.609 163.449 105.844 164.256 106.008 165.078C106.108 165.514 106.115 165.999 105.894 166.407C105.666 166.893 105.13 167.1 104.688 166.728L104.695 166.721Z" fill="#601124"/>
<path d="M107.129 162.091C106.886 161.612 106.886 161.012 106.794 160.505C106.687 159.912 106.658 158.905 107.35 158.676C108.55 158.762 108.685 160.712 108.742 161.648C108.657 162.727 107.686 163.177 107.129 162.084V162.091Z" fill="#601124"/>
<path d="M61.8989 164.713C61.5919 164.685 61.4634 164.363 61.3064 164.135C61.2279 164.02 61.1636 163.899 61.0922 163.785C60.357 162.613 59.5646 161.484 58.7722 160.355C57.937 158.962 56.9518 157.661 56.1666 156.239C55.6241 155.261 55.2314 154.217 54.9245 153.146C54.6175 152.16 54.4462 151.102 54.4747 150.073C54.4747 148.623 54.3962 147.172 54.3391 145.722C54.1035 142.593 53.6324 139.384 53.2897 136.298C53.1612 135.09 53.0256 133.89 52.8186 132.697C52.7686 132.104 52.4902 131.404 52.8329 130.86C53.4182 130.296 53.6252 131.211 53.7466 131.654C54.075 132.754 54.3819 133.861 54.5675 134.997C55.0958 137.87 55.5312 140.756 55.9524 143.65C56.2665 146.015 56.238 148.416 56.3451 150.795C56.7163 152.931 57.6657 154.918 58.7865 156.754C59.743 158.454 60.7496 160.126 61.7204 161.82C61.9631 162.234 62.1844 162.649 62.4129 163.063C62.5913 163.37 62.7769 163.677 62.6841 164.049C62.5985 164.435 62.3129 164.771 61.8989 164.728V164.713Z" fill="#601124"/>
<path d="M76.326 288.207C75.0482 288.207 73.7632 288.172 72.5069 288C70.7436 287.879 68.9161 288.086 67.2029 287.55C65.7966 286.971 64.4402 286.021 63.7335 284.649C62.4343 281.748 63.2981 277.204 64.0262 274.189C64.6401 271.931 65.3825 269.702 66.0321 267.444C66.4747 265.986 67.0244 264.557 67.417 263.078C68.3236 259.584 68.6163 255.769 68.7163 252.204C68.8091 251.282 68.3879 248.867 69.6014 248.767C70.2154 248.803 70.401 249.56 70.4795 250.053C70.6508 251.375 70.6365 252.718 70.6151 254.054C70.7008 257.019 70.1297 259.935 69.4658 262.807C69.1374 264.329 68.6591 265.808 68.1309 267.272C66.7389 271.481 65.0541 275.711 64.9756 280.198C65.0042 281.327 64.9114 282.591 65.561 283.57C66.1535 284.335 66.9958 284.885 67.9025 285.192C68.5949 285.356 69.323 285.385 70.0298 285.421C71.4075 285.464 72.7853 285.464 74.1487 285.664C75.091 285.721 76.0333 285.707 76.9685 285.785C77.7823 285.821 78.6032 285.757 79.4242 285.821C80.1594 285.842 80.8947 285.842 81.6229 285.699C82.2296 285.621 82.8507 285.614 83.4503 285.456C84.514 285.128 84.9851 284.013 85.3563 283.049C86.0202 281.155 86.263 279.119 86.0488 277.125C85.9417 275.639 85.8989 274.117 85.3421 272.71C84.8709 271.402 84.2356 270.173 83.5574 268.959C82.9221 267.837 82.5223 266.615 81.9155 265.479C80.9661 263.9 80.5592 262.064 80.6235 260.228C80.6235 260.249 80.6235 260.278 80.6235 260.299C80.6235 260.27 80.6235 260.235 80.6235 260.235C80.6235 260.22 80.6235 260.206 80.6235 260.163C80.6235 260.178 80.6235 260.192 80.6235 260.199C80.6948 256.584 80.8019 252.854 81.3088 249.281C81.3373 248.381 82.4224 247.702 82.9221 248.688C83.1434 249.189 82.9221 249.774 82.9007 250.282C82.9007 250.26 82.9007 250.239 82.9078 250.225C82.9078 250.203 82.9078 250.182 82.9149 250.16C82.865 250.532 82.8293 250.91 82.7793 251.282C82.7793 251.239 82.7936 251.189 82.7936 251.182C82.5366 253.411 82.5866 255.655 82.4724 257.891C82.4224 259.877 82.1654 261.992 83.2005 263.786C83.793 264.807 84.2927 265.872 84.8281 266.865C85.9417 268.823 87.0982 270.795 87.605 273.017C87.8549 274.16 87.9191 275.339 87.9976 276.511C88.1832 278.447 88.0191 280.398 87.4979 282.27C87.0196 284.027 86.3272 285.914 84.7995 287.021C83.8572 287.771 82.6151 287.721 81.4944 287.936C80.4307 288.15 79.3385 288.114 78.2606 288.15C77.6181 288.193 76.9756 288.222 76.326 288.193V288.207Z" fill="#601124"/>
<path d="M73.6919 258.013C72.7995 258.013 71.9286 257.834 71.0434 257.72C70.1797 257.584 68.2522 257.312 69.2231 256.055C69.5943 255.669 70.1511 255.733 70.6294 255.798C71.4075 255.862 72.1856 255.898 72.9637 255.919C74.1487 255.941 75.3337 255.833 76.5187 255.805C77.5039 255.783 78.489 255.84 79.467 255.733C79.8953 255.683 80.3379 255.569 80.7662 255.605C81.7157 255.712 81.6157 256.941 80.9732 257.391C80.6306 257.67 80.1951 257.677 79.7882 257.763C79.2457 257.863 78.6889 257.97 78.1392 257.991C76.6544 258.013 75.1767 258.027 73.6919 258.013Z" fill="#601124"/>
<path d="M76.3046 265.043C73.7418 265.015 71.122 264.486 68.8447 263.286C68.395 262.971 68.2879 262.421 68.7305 262.05C69.0161 261.799 69.4872 261.842 69.8299 261.899C72.1927 262.45 74.6913 262.893 77.1112 262.893C77.9108 262.921 78.7103 262.857 79.5098 262.757C80.1737 262.721 80.5449 262.485 81.116 262.564C81.3373 262.614 81.5372 262.771 81.6371 262.978C81.9013 263.55 81.4301 264.25 80.8947 264.479C80.602 264.6 80.2808 264.672 79.9738 264.736C78.7103 264.979 77.561 265.086 76.3046 265.043Z" fill="#601124"/>
<path d="M71.8644 282.563C69.1945 282.498 66.5461 281.748 64.2189 280.448C63.7978 280.283 63.4837 279.733 63.862 279.362C64.1261 279.105 64.5402 279.105 64.8685 279.205C65.7323 279.455 66.5961 279.669 67.467 279.898C71.3932 280.898 75.3837 280.512 79.3028 279.755C80.9304 279.505 82.4652 278.854 84.0429 278.419C84.7424 278.226 85.4063 277.918 86.0916 277.711C87.3552 277.54 87.4837 278.933 86.627 279.598C86.163 279.948 85.5491 280.062 85.0137 280.276C82.9506 280.905 80.8947 281.684 78.7246 281.862C76.4474 282.184 74.163 282.563 71.8644 282.548V282.563Z" fill="#601124"/>
<path d="M70.715 275.346C70.3653 275.346 70.1511 275.003 70.2368 274.675C70.3296 274.403 70.5223 274.167 70.7222 273.953C71.3218 273.51 72.0928 273.41 72.7781 273.153C73.9203 272.767 75.1267 272.745 76.3189 272.853C76.8828 272.881 77.4396 272.946 77.975 273.146C79.1101 273.639 78.3676 275.411 77.2112 274.975C75.7977 274.689 74.2701 274.696 72.8638 275.003C72.4926 275.089 72.1214 275.16 71.7501 275.232C71.4146 275.303 71.0577 275.482 70.7222 275.353L70.715 275.346Z" fill="#601124"/>
<path d="M71.4289 270.131C71.1791 269.98 71.1077 269.673 71.1362 269.402C71.2219 268.644 72.05 268.444 72.6496 268.216C73.5348 267.944 74.47 267.923 75.3909 267.98C76.069 267.966 76.7329 268.03 77.3682 268.273C77.6252 268.373 77.8965 268.437 78.1321 268.573C79.053 269.237 78.4248 270.331 77.3897 270.123C76.9399 269.995 76.4973 269.823 76.0333 269.759C75.6764 269.73 75.3195 269.759 74.9625 269.745C74.2772 269.716 73.5848 269.723 72.9138 269.88C72.4283 269.988 71.9215 270.395 71.4289 270.138V270.131Z" fill="#601124"/>
<path d="M73.285 264.207C72.0999 264.071 72.6282 262.35 72.5711 261.535C72.564 260.52 72.6353 259.52 72.7424 258.513C72.8138 257.941 72.7496 257.041 73.4563 256.876C74.0274 256.798 74.1487 257.527 74.1987 257.941C74.2629 258.498 74.3129 259.056 74.3343 259.613C74.3843 260.542 74.4271 261.478 74.3629 262.407C74.3914 263.143 74.1916 264.164 73.2921 264.207H73.285Z" fill="#601124"/>
<path d="M76.1761 264.007C76.019 263.436 76.1618 262.75 76.1689 262.199C76.2903 260.742 76.3403 259.263 76.6901 257.834C76.7829 257.355 77.1969 256.591 77.7894 256.884C78.2463 257.219 78.1678 257.87 78.1606 258.37C78.1606 258.884 78.1535 259.392 78.1321 259.906C78.0892 261.099 77.9393 262.278 77.8608 263.464C77.7751 264.343 76.6258 265.036 76.1761 264V264.007Z" fill="#601124"/>
<path d="M78.6389 249.796C77.6038 249.596 77.6395 248.488 78.6889 248.338C80.1737 248.045 81.7014 247.974 83.1862 247.66C83.8572 247.588 84.2784 247.167 84.6068 246.602C85.2207 245.73 85.2707 244.709 85.492 243.723C85.7061 242.501 85.9417 241.279 86.0488 240.043C86.1345 237.985 86.6556 235.992 86.9197 233.963C87.0339 233.134 87.1196 232.305 87.2338 231.476C87.348 230.855 87.5193 230.247 87.5907 229.618C87.6193 229.347 87.7835 229.075 87.7692 228.811C87.6693 228.668 87.8549 228.504 88.0048 228.547C88.4117 228.647 88.2047 229.183 88.1904 229.461C88.0476 231.212 88.0333 232.969 87.9477 234.72C87.912 236.013 87.6978 237.356 87.6407 238.621C87.5622 239.707 87.5765 240.793 87.398 241.865C87.2838 243.001 87.0982 244.123 86.9054 245.245C86.7127 246.281 86.3914 247.117 85.7632 247.938C85.0422 248.953 83.7002 249.117 82.5723 249.303C81.6014 249.503 80.6092 249.56 79.6312 249.689C79.3028 249.732 78.9673 249.853 78.6318 249.782L78.6389 249.796Z" fill="#601124"/>
<path d="M139.396 288.7C136.376 288.6 133.342 288.557 130.33 288.336C127.496 288.079 124.662 287.671 121.806 287.664C117.566 287.679 113.118 287.471 109.199 285.707C105.923 284.135 105.666 279.848 105.894 276.668C106.244 270.495 107.3 264.372 107.593 258.191C107.543 255.562 107.593 252.94 107.493 250.31C107.486 249.86 107.515 249.403 107.379 248.974C107.193 248.581 107.436 247.945 107.936 248.017C108.914 248.381 108.8 252.397 108.999 253.468C109.064 255.912 109.356 258.413 109.185 260.849C108.899 265.229 108.393 269.587 108.05 273.967C107.679 277.44 106.829 282.656 111.027 284.049C114.46 285.085 118.073 285.292 121.635 285.392C127.21 285.485 132.635 286.771 138.225 286.607C141.937 286.793 144.842 285.871 145.278 281.705C145.72 278.161 142.544 276.39 139.538 275.746C137.047 274.889 134.399 274.332 132.107 272.989C129.744 271.645 127.81 269.688 125.789 267.894C121.235 263.536 122.084 260.899 121.485 255.19C121.428 253.876 121.392 252.568 121.378 251.253C121.442 250.196 120.821 247.595 122.134 247.288C122.934 247.231 123.012 248.174 122.92 248.774C122.898 249.424 122.955 250.082 122.998 250.732C123.027 253.261 123.184 255.776 123.412 258.298C123.584 261.099 124.148 262.893 126.146 264.922C127.438 266.272 128.973 267.38 130.394 268.594C131.757 269.88 133.363 270.902 135.105 271.588C138.032 272.774 141.137 273.096 143.857 274.668C147.733 276.711 148.162 281.741 146.277 285.335C145.007 287.85 142.051 288.772 139.403 288.715L139.396 288.7Z" fill="#601124"/>
<path d="M120.878 275.632C120.136 275.268 119.593 274.618 118.958 274.11C117.98 273.217 117.137 272.102 117.045 270.731C116.616 268.258 117.837 265.736 119.936 264.407C121.021 263.729 122.556 262.871 123.862 263.036C124.519 263.236 124.719 264.207 123.948 264.4C123.733 264.522 123.498 264.565 123.262 264.607C122.82 264.729 122.406 264.943 122.006 265.172C120.764 265.922 119.479 266.965 119.193 268.473C118.815 270.916 120.25 271.71 121.656 273.331C121.913 273.56 122.206 273.767 122.27 274.125C122.477 274.918 121.728 275.882 120.878 275.625V275.632Z" fill="#601124"/>
<path d="M114.268 270.416C112.419 270.366 110.506 270.252 108.771 269.595C108.328 269.366 107.814 269.223 107.443 268.88C107.079 268.437 107.393 267.701 107.907 267.523C108.121 267.451 108.386 267.458 108.614 267.473C108.957 267.473 109.278 267.573 109.613 267.623C110.563 267.766 111.526 267.751 112.476 267.858C113.547 267.973 114.625 268.044 115.703 268.137C116.267 268.18 116.823 268.101 117.387 268.087C118.33 268.244 118.23 269.48 117.616 269.973C116.938 270.538 115.139 270.423 114.282 270.409L114.268 270.416Z" fill="#601124"/>
<path d="M126.161 274.267C125.347 274.124 125.368 273.038 125.789 272.503C126.667 271.281 127.767 270.145 129.102 269.43C129.544 269.18 130.408 268.952 130.437 269.709C130.365 270.481 129.494 270.752 129.052 271.288C128.495 271.86 127.988 272.488 127.553 273.167C127.267 273.696 126.853 274.353 126.161 274.267Z" fill="#601124"/>
<path d="M130.886 276.49C130.444 276.332 130.344 275.796 130.465 275.396C130.694 274.718 131.265 274.225 131.729 273.703C132.321 273.124 133.028 272.545 133.699 272.088C133.827 272.017 133.956 271.931 134.106 271.938C134.391 271.945 134.563 272.174 134.556 272.445C134.556 272.767 134.327 273.046 134.156 273.303C133.67 273.996 133.092 274.625 132.557 275.282C132.114 275.789 131.707 276.704 130.894 276.49H130.886Z" fill="#601124"/>
<path d="M139.217 283.377C137.211 283.377 135.205 283.349 133.192 283.363C131.507 283.313 129.823 283.184 128.131 283.12C123.791 282.856 119.5 282.141 115.167 281.813C113.104 281.67 111.055 281.42 109.007 281.134C108.328 280.984 107.465 281.162 106.986 280.555C106.794 280.276 106.886 279.941 107.136 279.733C107.465 279.469 107.9 279.54 108.286 279.569C108.8 279.612 109.306 279.655 109.82 279.712C112.49 280.026 115.174 280.105 117.858 280.319C121.235 280.562 124.933 280.912 128.202 281.048C131.993 281.177 135.798 281.262 139.581 281.441C140.98 281.541 142.037 281.562 143.343 281.641C144.228 281.677 145.114 281.57 145.992 281.591C146.848 281.655 147.055 282.377 146.199 282.756C145.87 282.891 145.513 282.963 145.171 283.041C143.215 283.477 141.202 283.37 139.21 283.377H139.217Z" fill="#601124"/>
<path d="M113.026 260.878C112.205 260.856 111.369 260.835 110.548 260.771C109.885 260.692 109.164 260.721 108.543 260.428C108.278 260.27 108.043 259.97 108.221 259.656C108.371 259.392 108.7 259.384 108.964 259.334C112.968 258.82 117.002 258.599 121.028 258.298C121.856 258.141 123.048 259.034 122.356 259.863C122.106 260.12 121.763 260.17 121.421 260.192C121.071 260.22 120.728 260.278 120.378 260.335C117.958 260.778 115.481 260.906 113.026 260.871V260.878Z" fill="#601124"/>
<path d="M111.712 269.237C111.162 268.33 111.555 266.701 111.469 265.622C111.598 263.664 111.584 261.614 112.112 259.734C112.647 258.627 113.497 259.327 113.475 260.292C113.582 262.064 113.475 263.836 113.411 265.608C113.261 266.779 113.754 268.337 112.94 269.287C112.604 269.637 112.012 269.637 111.712 269.237Z" fill="#601124"/>
<path d="M116.795 269.073C115.824 268.416 116.345 263.9 116.381 262.685C116.602 261.607 116.174 260.149 117.066 259.334C118.38 258.734 118.251 260.828 118.33 261.614C118.415 263.2 118.33 264.793 118.23 266.379C118.158 267.315 118.308 269.602 116.788 269.073H116.795Z" fill="#601124"/>
<path d="M63.812 140.292C63.6407 140.285 63.4694 140.292 63.298 140.256C62.9197 140.192 62.627 139.72 63.1053 139.42C63.4694 139.22 63.8691 139.077 64.2618 138.927C65.3825 138.556 66.539 138.334 67.6883 138.063C70.4938 137.391 73.1779 136.841 75.9762 136.226C81.7014 134.89 87.4836 133.833 93.2945 132.925C99.2409 131.997 105.116 130.696 111.02 129.546C115.003 128.746 119.001 127.974 122.955 127.038C124.205 126.974 124.504 127.96 123.184 128.424C122.227 128.667 121.271 128.924 120.314 129.16C115.831 130.253 111.334 131.068 106.822 131.989C102.389 132.925 97.9774 133.961 93.5158 134.754C88.2332 135.698 82.972 136.748 77.7323 137.891C73.1636 139.013 68.5521 140.178 63.8192 140.285L63.812 140.292Z" fill="#601124"/>
<path d="M76.4045 235.613C76.4045 234.813 76.947 234.127 77.2255 233.398C77.6324 232.727 77.7252 231.776 78.3462 231.276C79.8239 231.033 78.1535 234.856 78.0321 235.585C77.7965 236.721 76.4616 237.006 76.4045 235.613Z" fill="#601124"/>
<path d="M79.517 238.843C79.0315 238.45 78.9673 237.721 79.0886 237.142C79.2314 236.613 79.5098 236.127 79.7311 235.627C80.0666 234.906 80.4021 234.184 80.7091 233.448C80.9732 232.877 81.53 231.14 82.3795 231.783C82.9221 232.476 82.5223 233.462 82.3795 234.234C82.1083 235.37 81.7228 236.47 81.2659 237.549C81.0303 238.25 80.3879 239.364 79.5241 238.843H79.517Z" fill="#601124"/>
<path d="M109.057 261.335C108.885 261.321 108.714 261.328 108.55 261.306C107.793 261.271 107.172 260.406 107.936 259.87C108.742 259.47 109.699 259.413 110.563 259.249C112.04 259.106 113.375 259.184 114.825 259.127C116.452 258.991 118.08 258.798 119.7 258.606C120.236 258.534 120.778 258.463 121.314 258.377C121.706 258.298 122.099 258.205 122.484 258.355C123.091 258.548 123.355 259.327 122.784 259.734C122.556 259.913 122.27 259.92 121.999 259.956C121.556 260.006 121.107 260.056 120.657 260.106C119.443 260.227 118.08 260.392 116.916 260.57C115.624 260.785 114.468 260.949 113.183 261.071C111.755 261.221 110.327 261.435 108.892 261.342L109.057 261.356V261.335Z" fill="#601124"/>
<path d="M120.05 259.492C119.722 259.492 119.415 259.42 119.086 259.456C118.779 259.47 118.465 259.492 118.23 259.277C118.123 259.177 118.108 259.02 118.151 258.891C118.372 258.384 119.265 258.448 119.736 258.334C120.393 258.241 121.049 258.17 121.699 258.055C121.827 258.041 121.963 258.02 122.092 257.998C122.556 257.912 122.87 258.427 122.684 258.827C122.506 259.363 121.935 259.484 121.428 259.463C120.949 259.492 120.5 259.484 120.036 259.492H120.05Z" fill="#601124"/>
</g>
<defs>
<clipPath id="clip0_1_1054">
<rect width="192" height="288" fill="white"/>
</clipPath>
</defs>
</svg>
