<svg width="47" height="45" viewBox="0 0 47 45" fill="none" xmlns="http://www.w3.org/2000/svg">
<path fill-rule="evenodd" clip-rule="evenodd" d="M37.9576 40.4146C49.6204 31.5272 50.6448 10.2974 33.894 3.01274C15.185 -4.79667 1.84452 6.87077 0.35276 22.1857C-0.251314 28.4436 0.647334 36.4039 7.51748 40.529C16.7426 46.3092 30.0111 46.3986 37.9576 40.4146Z" fill="#BAEBFF"/>
<path fill-rule="evenodd" clip-rule="evenodd" d="M22.7997 14.6493L24.2134 13.2346C24.8136 13.8344 24.9177 14.5808 24.9474 14.888C24.9848 15.2743 24.9574 15.6492 24.9264 15.925C24.8938 16.2154 24.8455 16.4911 24.8075 16.6964C24.7967 16.7545 24.7835 16.8243 24.7726 16.8815C24.7664 16.914 24.761 16.9424 24.7573 16.9624C24.7507 16.9978 24.7458 17.0246 24.7421 17.0456C24.7387 17.0649 24.7375 17.073 24.7375 17.073L24.7376 17.0726C24.4532 19.0676 24.2645 21.0787 24.1329 23.1154C24.1025 23.587 24.0773 24.0875 24.051 24.6075C23.9602 26.4094 23.8577 28.444 23.4848 30.3119C23.2685 31.3951 22.2151 32.0979 21.1319 31.8816C20.0487 31.6654 19.3459 30.612 19.5622 29.5288C19.8719 27.9774 19.9547 26.3553 20.0436 24.6127C20.0727 24.0412 20.1026 23.4567 20.1413 22.8575C20.2288 21.502 20.3416 20.1444 20.4911 18.785C19.8841 18.7514 19.2997 18.4425 18.9363 17.8978C18.3601 17.034 18.5446 15.8847 19.3322 15.2408C19.3365 15.2367 19.3411 15.2321 19.3461 15.2272C19.3993 15.1749 19.4762 15.0965 19.5777 14.9914C19.6925 14.8726 19.7996 14.7605 19.9149 14.6399C20.0294 14.5201 20.1519 14.3918 20.298 14.2402C20.5537 13.9749 20.8339 13.688 21.0651 13.4689C21.1728 13.3667 21.316 13.2349 21.4617 13.1225C21.5204 13.0772 21.6708 12.9626 21.8703 12.8635C21.9592 12.8193 22.1898 12.7101 22.5049 12.6656C22.81 12.6225 23.5767 12.5984 24.2134 13.2346L22.7997 14.6493ZM19.293 15.2778C19.2934 15.2773 19.2998 15.2712 19.3113 15.261C19.2985 15.2732 19.2927 15.2783 19.293 15.2778Z" fill="#601124"/>
</svg>
